<?xml version="1.0" encoding="utf-8"?>
<!-- Generator: Adobe Illustrator 19.2.1, SVG Export Plug-In . SVG Version: 6.00 Build 0)  -->
<svg version="1.1" id="layer" xmlns="http://www.w3.org/2000/svg" xmlns:xlink="http://www.w3.org/1999/xlink" x="0px" y="0px"
	 viewBox="0 0 652 652" style="enable-background:new 0 0 652 652;" xml:space="preserve">
<style type="text/css">
	.st0{fill:#EB000A;}
</style>
<path id="leatt-prmary" class="st0" d="M420.3,279.3l-27.8,95.7c-0.4,1.2-1.4,2.1-2.7,2.4l-28.2,7.2c0,0-2.1,0.6-1.6-1.3l27.6-95.9
	c0,0,0.5-1.9-1.6-1.4l-14.5,3.5c-1.2,0.3-2.2,1.2-2.7,2.4l-27.5,95.6c-0.4,1.2-1.4,2.1-2.7,2.4l-28.4,7.4c0,0-2.1,0.6-1.6-1.3
	l27.3-95.6c0,0,0.6-1.9-1.6-1.3l-26.8,6.8c0,0-2.1,0.6-1.6-1.3l8.3-28.2c0.4-1.2,1.5-2.1,2.7-2.4l127.4-31.5l6.3-21
	c9.6-36.5,31.6-37.4,51.4-15.2l58.7,61.5c0,0-9.3,30.9-9.8,32.2l-57.2-60.1c-8.9-9.8-13.4-14.5-19.5,6l-10,34.4l-10.2-10.7
	l-31.2,7.3C421.8,277.2,420.8,278.1,420.3,279.3z M306.9,352.2l-8,2c0,0-2.2,0.5-2.2,2.5v41.9c-0.1,1.2-1,2.2-2.2,2.5l-28.3,6.9
	c0,0-2.2,0.5-2.2-1.4v-41.7c0,0,0-2-2.2-1.5l-16.7,4.1c-1.2,0.3-2.2,1.2-2.7,2.4L229,415.5c-0.4,1.2-1.4,2.1-2.7,2.5l-28.4,7.5
	c0,0-2.1,0.6-1.6-1.3l13.8-47.9l-72.2,18c-1.3,0.3-2.3,1.2-2.8,2.5l-4.1,14.4l60.4-14.8c0.2,0,0.3,0,0.3,0.3
	c-1,3.7-9.4,32.2-9.5,32.5l-59.7,15.4c-0.1,0-0.3,0-0.3-0.1l-14.1-15c0,0-1.5-1.5-2,0.4l-5.6,19.7c-0.1,0.3-0.1,0.3-0.4,0.4
	l-33.8,8.3c-36.3,10-48-8.5-38.9-36.7l22.9-79.6c0.4-1.2,1.4-2.1,2.7-2.4l28.6-6.7c2.1-0.5,1.6,0.7,1.5,1.3c0,0-22.1,76.2-22.7,78
	c-3.9,12.2-5.7,18.3,15.1,13.3l23.1-5.8l4.1-14.6c0,0,0.5-1.9-1.6-1.3l-17.7,4.4c0,0-2.1,0.5-1.6-1.3l8.6-29.6
	c0-0.1,0.1-0.2,0.3-0.3l19.5-4.9c1.2-0.3,2.2-1.2,2.7-2.4c6.5-22.9,13.6-47.9,13.6-47.9l91.6-22.6c0,0,2.1-0.5,1.6,1.4l-8.6,29.3
	c0,0.2,0,0.3-0.3,0.3l-60.6,15.2c0,0-2.3,7.8-4.7,16.1c0,0-0.6,1.9,1.6,1.3l69.8-17.4c1.2-0.3,2.2-1.2,2.7-2.4l13.3-45.7
	c0.4-1.2,1.5-2.1,2.7-2.4l59.1-15c0,0,2.1-0.6,2.1,1.4v42.3c0,0,0,2,2.2,1.5l16.9-4.1c0,0,2.2-0.5,1.6,1.4l-7.8,27.9
	C309.2,351,308.1,351.9,306.9,352.2L306.9,352.2z M264.1,331.6v-19.1c0,0,0-1.9-2.2-1.5l-1.2,0.3c-1.1,0.4-1.9,1.2-2.2,2.3
	l-5.9,21.1c0,0-0.5,1.9,1.6,1.3l7.7-2C261.9,334.1,264.1,333.6,264.1,331.6L264.1,331.6z M533,223.1h-1.6v-7.9h4.1
	c0.4,0,0.9,0.1,1.2,0.3c0.3,0.2,0.6,0.4,0.7,0.8c0.2,0.3,0.3,0.7,0.3,1.1c0,0.6-0.2,1.1-0.6,1.5c-0.4,0.4-1,0.7-1.6,0.7
	c0.2,0.1,0.4,0.2,0.6,0.3c0.2,0.2,0.4,0.4,0.5,0.6c0,0.1,0.3,0.4,0.6,1l0.9,1.6h-2l-0.7-1.3c-0.3-0.6-0.7-1.2-1.1-1.6
	c-0.3-0.2-0.7-0.3-1.1-0.3h-0.4L533,223.1z M533,218.6h0.7c0.6,0,1.2,0,1.7-0.1c0.2-0.1,0.4-0.2,0.5-0.4c0.3-0.4,0.3-0.8,0-1.2
	c-0.1-0.2-0.3-0.3-0.5-0.4c-0.6-0.1-1.1-0.1-1.7-0.1H533V218.6z M608.9,317l-24.3-25.7l-33.6,8.5l24.7,25.6
	c14.8,15.6,8.5,17.1-4.5,19.9l-80.5,19.6c1,1.1,23.1,24.5,23.1,24.5l82.6-20.4C625.6,362.9,635.8,343.4,608.9,317z M528.3,222.8
	c-0.6-1.1-1-2.4-1-3.7c0-1.3,0.3-2.6,1-3.7c0.6-1.2,1.6-2.1,2.8-2.8c2.3-1.3,5.1-1.3,7.4,0c1.2,0.6,2.1,1.6,2.8,2.8
	c0.7,1.1,1,2.4,1,3.7c0,1.3-0.3,2.6-1,3.7c-0.6,1.2-1.6,2.1-2.8,2.8c-2.3,1.3-5.2,1.3-7.5,0C529.8,224.8,528.9,223.9,528.3,222.8z
	 M528.8,219c0,1,0.3,2.1,0.8,3c0.5,0.9,1.3,1.7,2.2,2.2c1.9,1.1,4.1,1.1,6,0c0.9-0.5,1.7-1.3,2.2-2.2c1.1-1.9,1.1-4.1,0-6
	c-0.5-0.9-1.3-1.7-2.2-2.2c-1.8-1-4.1-1-5.9,0c-0.9,0.5-1.7,1.3-2.2,2.2C529,217,528.8,218,528.8,219L528.8,219z M441.2,359.7
	l23.2-79.5c-1.4,0.3-32.8,7.7-32.8,7.7L408,369.6c-9.2,28.3,2.6,46.9,38.9,36.9l34.3-8.2l9.6-33.4l-34.5,8.6
	C435.4,378.6,437.2,372.4,441.2,359.7L441.2,359.7z"/>
</svg>
