<?xml version="1.0" encoding="utf-8"?>
<!-- Generator: Adobe Illustrator 16.0.0, SVG Export Plug-In . SVG Version: 6.00 Build 0)  -->
<!DOCTYPE svg PUBLIC "-//W3C//DTD SVG 1.1//EN" "http://www.w3.org/Graphics/SVG/1.1/DTD/svg11.dtd">
<svg version="1.1" id="Layer_1" xmlns="http://www.w3.org/2000/svg" xmlns:xlink="http://www.w3.org/1999/xlink" x="0px" y="0px"
	 width="566.929px" height="566.929px" viewBox="0 0 566.929 566.929" enable-background="new 0 0 566.929 566.929"
	 xml:space="preserve">
<g>
	<defs>
		<rect id="SVGID_1_" width="566.929" height="566.929"/>
	</defs>
	<clipPath id="SVGID_2_">
		<use xlink:href="#SVGID_1_"  overflow="visible"/>
	</clipPath>
	<path clip-path="url(#SVGID_2_)" d="M283.46,566.929C127.152,566.929,0,439.773,0,283.462C0,127.165,127.152,0,283.46,0
		c156.309,0,283.469,127.165,283.469,283.462C566.929,439.773,439.769,566.929,283.46,566.929"/>
</g>
<g>
	<defs>
		<polygon id="SVGID_3_" points="275.514,52.161 251.928,52.865 270.598,67.298 263.978,89.927 283.46,76.632 302.95,89.927 
			296.33,67.298 314.988,52.865 291.406,52.161 283.46,29.951 		"/>
	</defs>
	<clipPath id="SVGID_4_">
		<use xlink:href="#SVGID_3_"  overflow="visible"/>
	</clipPath>
	
		<linearGradient id="SVGID_5_" gradientUnits="userSpaceOnUse" x1="0" y1="566.978" x2="1" y2="566.978" gradientTransform="matrix(49.0442 52.1093 52.1093 -49.0442 -29275.7031 27851.6562)">
		<stop  offset="0" style="stop-color:#968F40"/>
		<stop  offset="0.0041" style="stop-color:#989142"/>
		<stop  offset="0.1591" style="stop-color:#CFC99B"/>
		<stop  offset="0.2674" style="stop-color:#F0EDDC"/>
		<stop  offset="0.319" style="stop-color:#FFFFFF"/>
		<stop  offset="0.3337" style="stop-color:#FDFCF8"/>
		<stop  offset="0.3467" style="stop-color:#F9F7EB"/>
		<stop  offset="0.3592" style="stop-color:#F3F0D8"/>
		<stop  offset="0.3714" style="stop-color:#EDE7C0"/>
		<stop  offset="0.3831" style="stop-color:#E3DCA2"/>
		<stop  offset="0.3865" style="stop-color:#E0D898"/>
		<stop  offset="0.39" style="stop-color:#DDD594"/>
		<stop  offset="0.4202" style="stop-color:#C7BF78"/>
		<stop  offset="0.4544" style="stop-color:#B5AD63"/>
		<stop  offset="0.4949" style="stop-color:#A79F53"/>
		<stop  offset="0.5449" style="stop-color:#9D9648"/>
		<stop  offset="0.615" style="stop-color:#989142"/>
		<stop  offset="0.8098" style="stop-color:#968F40"/>
		<stop  offset="1" style="stop-color:#968F40"/>
		<stop  offset="1" style="stop-color:#989142"/>
		<stop  offset="1" style="stop-color:#CFC99B"/>
		<stop  offset="1" style="stop-color:#F0EDDC"/>
		<stop  offset="1" style="stop-color:#FFFFFF"/>
	</linearGradient>
	<polygon clip-path="url(#SVGID_4_)" fill="url(#SVGID_5_)" points="285.367,-1.521 344.921,61.755 281.549,121.399 221.995,58.124 
			"/>
</g>
<g>
	<defs>
		<path id="SVGID_6_" d="M72.598,439.772C-13.598,323.516,10.875,158.795,127.139,72.61c116.261-86.201,280.98-61.734,367.173,54.53
			c86.2,116.275,61.74,280.976-54.536,367.188c-46.889,34.754-101.667,51.514-155.984,51.517
			C203.415,545.85,124.034,509.158,72.598,439.772 M121.9,65.561C1.758,154.633-23.521,324.859,65.553,445.009
			c89.068,120.145,259.296,145.429,379.456,56.358c120.146-89.075,145.44-259.296,56.365-379.452
			C448.223,50.231,366.17,12.315,283.12,12.308C226.969,12.303,170.374,29.628,121.9,65.561"/>
	</defs>
	<clipPath id="SVGID_7_">
		<use xlink:href="#SVGID_6_"  overflow="visible"/>
	</clipPath>
	
		<linearGradient id="SVGID_8_" gradientUnits="userSpaceOnUse" x1="0" y1="566.9214" x2="1" y2="566.9214" gradientTransform="matrix(424.9144 385.4768 385.4768 -424.9144 -218466.5469 240987.6719)">
		<stop  offset="0" style="stop-color:#FFFFFF"/>
		<stop  offset="0.0614" style="stop-color:#6D6E71"/>
		<stop  offset="0.1029" style="stop-color:#707173"/>
		<stop  offset="0.1363" style="stop-color:#77797B"/>
		<stop  offset="0.1669" style="stop-color:#848688"/>
		<stop  offset="0.1958" style="stop-color:#96989A"/>
		<stop  offset="0.2235" style="stop-color:#AEB0B2"/>
		<stop  offset="0.2502" style="stop-color:#CDCFD0"/>
		<stop  offset="0.2759" style="stop-color:#F2F2F3"/>
		<stop  offset="0.2822" style="stop-color:#FFFFFF"/>
		<stop  offset="0.5" style="stop-color:#6D6E71"/>
		<stop  offset="0.5184" style="stop-color:#6F7072"/>
		<stop  offset="0.5251" style="stop-color:#747578"/>
		<stop  offset="0.5298" style="stop-color:#7D7E81"/>
		<stop  offset="0.5336" style="stop-color:#898B8E"/>
		<stop  offset="0.5369" style="stop-color:#9A9C9E"/>
		<stop  offset="0.5398" style="stop-color:#AFB1B4"/>
		<stop  offset="0.5424" style="stop-color:#CACCCE"/>
		<stop  offset="0.5447" style="stop-color:#E8E9EA"/>
		<stop  offset="0.546" style="stop-color:#FFFFFF"/>
		<stop  offset="0.6176" style="stop-color:#FAFAFA"/>
		<stop  offset="0.6799" style="stop-color:#F0F0F1"/>
		<stop  offset="0.7386" style="stop-color:#E1E2E3"/>
		<stop  offset="0.7951" style="stop-color:#CCCED0"/>
		<stop  offset="0.8496" style="stop-color:#B1B4B6"/>
		<stop  offset="0.9018" style="stop-color:#939598"/>
		<stop  offset="1" style="stop-color:#D1D3D4"/>
	</linearGradient>
	<polygon clip-path="url(#SVGID_7_)" fill="url(#SVGID_8_)" points="253.656,-319.125 891.036,259.098 313.272,895.972 
		-324.108,317.75 	"/>
</g>
<g>
	<defs>
		<rect id="SVGID_9_" width="566.929" height="566.929"/>
	</defs>
	<clipPath id="SVGID_10_">
		<use xlink:href="#SVGID_9_"  overflow="visible"/>
	</clipPath>
	<path clip-path="url(#SVGID_10_)" fill="#FFFFFF" d="M285.223,465.064l-2.319-0.777c-0.706-0.236-70.637-23.782-114.299-51.226
		c-40.223-25.278-57.376-50.648-57.376-84.832c0-23.404,6.528-42.335,12.845-60.643c5.609-16.265,10.908-31.628,10.908-48.564
		c0-26.569-13.58-44.143-17.736-48.899c-1.546-1.762-2.327-3.648-2.327-5.601c0-2.837,1.645-5.611,4.088-6.884
		c69.029-35.936,146.726-37.754,161.603-37.754c1.804,0,2.801,0.029,2.9,0.029c0,0,0.998-0.029,2.806-0.029
		c14.868,0,92.565,1.818,161.606,37.752c2.446,1.286,4.089,4.052,4.089,6.886c0,1.962-0.781,3.843-2.332,5.605
		c-4.15,4.757-17.728,22.361-17.728,48.895c0,16.936,5.29,32.299,10.9,48.564c6.316,18.308,12.845,37.238,12.845,60.643
		c0,34.192-17.149,59.558-57.367,84.832c-40.068,25.174-102.303,47.099-113.106,50.818V465.064z M280.609,123.402
		c-14.731,0-91.672,1.797-159.978,37.35c-1.292,0.68-2.198,2.228-2.198,3.77c0,1.092,0.474,2.169,1.455,3.289
		c4.364,4.984,18.609,23.419,18.609,51.211c0,17.522-5.399,33.157-11.1,49.71c-6.229,18.039-12.653,36.684-12.653,59.497
		c0,32.82,16.663,57.306,55.725,81.853c41.249,25.927,106.267,48.4,112.983,50.686c8.71-2.979,72.402-25.184,113.006-50.686
		c39.062-24.547,55.727-49.023,55.727-81.853c0-22.812-6.433-41.458-12.658-59.497c-5.701-16.553-11.095-32.188-11.095-49.71
		c0-27.757,14.233-46.214,18.601-51.211c0.988-1.12,1.463-2.197,1.463-3.289c0-1.537-0.906-3.09-2.203-3.772
		c-68.301-35.551-145.254-37.348-159.977-37.348c-1.816,0-2.797,0.023-2.797,0.023C283.402,123.425,282.421,123.402,280.609,123.402
		"/>
	<path clip-path="url(#SVGID_10_)" fill-rule="evenodd" clip-rule="evenodd" fill="#FFFFFF" d="M185.31,184.976
		c2.796-1.855,6.598-2.041,8.955,0.511c2.36,2.563,1.21,5.64-1.576,7.488c-2.796,1.86-6.598,2.049-8.963-0.512
		C181.374,189.908,182.513,186.834,185.31,184.976 M182.247,181.651c-5.461,3.613-7.654,9.196-3.271,13.968
		c4.389,4.758,11.32,4.283,16.764,0.677c5.469-3.612,7.667-9.189,3.278-13.951C194.631,177.579,187.712,178.045,182.247,181.651"/>
	<path clip-path="url(#SVGID_10_)" fill-rule="evenodd" clip-rule="evenodd" fill="#FFFFFF" d="M214.959,177.599l3.616-1.43
		c0.847,0.468,7.131,3.24,7.289,3.523c0.203,0.37,0,0.641-0.503,0.88l0.207,0.378l7.684-3.037l-0.204-0.381
		c-0.411,0.173-0.827,0.142-1.383-0.132l-7.214-3.468c2.668-1.933,4.039-4.349,2.456-7.227c-1.975-3.563-5.191-4.278-10.652-2.113
		l-13.521,5.345l0.207,0.373c0.948-0.303,1.188-0.133,1.343,0.143l8.032,14.597c0.145,0.274,0.158,0.54-0.723,0.967l0.199,0.375
		l7.614-3.002l-0.216-0.374c-0.952,0.295-1.181,0.12-1.339-0.16L214.959,177.599z M211.228,170.842l6.222-2.452
		c2.173-0.858,3.282-0.314,3.785,0.593c0.507,0.905,0.283,1.984-1.903,2.85l-6.208,2.458L211.228,170.842z"/>
	<path clip-path="url(#SVGID_10_)" fill-rule="evenodd" clip-rule="evenodd" fill="#FFFFFF" d="M242.977,157.985
		c-0.075-0.304-0.021-0.567,0.947-0.825l-0.103-0.408l-8.179,1.599l0.105,0.411c1.013-0.129,1.188,0.087,1.271,0.382l4.276,15.682
		c0.079,0.303,0.029,0.562-0.943,0.831l0.107,0.405l20.737-4.058c0.432-0.089,0.636,0.052,0.948,0.738l0.481-0.102l-1.62-5.924
		l-0.474,0.091c0.092,0.809-0.021,0.997-0.457,1.091l-13.663,2.679L242.977,157.985z"/>
	<path clip-path="url(#SVGID_10_)" fill-rule="evenodd" clip-rule="evenodd" fill="#FFFFFF" d="M279.313,156.157l4.123,8.161
		l-7.583,0.101L279.313,156.157z M284.545,167.065c0.17,0.446,1.454,2.942,1.454,3.088c0.009,0.206-0.195,0.378-0.772,0.424
		l0.013,0.407l8.028-0.112l-0.009-0.418c-0.486,0-0.739-0.198-1.163-1.023c-2.635-5.2-7.854-15.454-7.863-15.73
		c-0.008-0.345,0.283-0.42,0.724-0.465l-0.008-0.408l-10.638,0.16l0.016,0.41c0.358,0.024,0.815,0.091,0.823,0.328
		c0,0.216-6.574,15.504-6.923,16.307c-0.242,0.552-0.474,0.695-1.043,0.809l0.004,0.408l7.214-0.104v-0.407
		c-0.574,0.008-0.744-0.138-0.744-0.341c-0.012-0.217,0.229-0.654,1.239-3.191L284.545,167.065z"/>
	<path clip-path="url(#SVGID_10_)" fill-rule="evenodd" clip-rule="evenodd" fill="#FFFFFF" d="M301.487,170.842
		c-0.075,0.304-0.249,0.521-1.271,0.407l-0.1,0.404l7.579,1.376l0.105-0.411c-0.994-0.247-1.049-0.51-0.97-0.81l2.664-10.607
		c8.016,11.863,8.901,12.473,8.797,12.92c-0.058,0.237-0.291,0.33-1.014,0.203l-0.103,0.404l7.574,1.375l0.1-0.411
		c-0.973-0.255-1.03-0.505-0.964-0.813l3.952-15.741c0.079-0.299,0.253-0.514,1.275-0.407l0.108-0.4l-7.298-1.318l-0.111,0.404
		c0.511,0.133,0.793,0.35,0.686,0.761l-2.261,9.016c-2.136-3.101-7.48-10.562-7.385-10.936c0.054-0.201,0.308-0.363,1.222-0.232
		l0.104-0.406l-9.608-1.732l-0.096,0.406c0.977,0.239,1.035,0.508,0.96,0.819L301.487,170.842z"/>
	<path clip-path="url(#SVGID_10_)" fill-rule="evenodd" clip-rule="evenodd" fill="#FFFFFF" d="M334.283,177.843
		c-0.158,0.276-0.378,0.46-1.338,0.151l-0.208,0.373l11.848,4.689c6.877,2.72,12.558,0.154,14.914-4.13
		c2.568-4.667,1.354-9.486-5.443-12.164l-12.264-4.854l-0.208,0.379c0.894,0.428,0.886,0.684,0.729,0.966L334.283,177.843z
		 M346.334,168.2l4.696,1.849c3.91,1.552,4.463,4.06,3.004,6.714c-1.467,2.659-4.076,3.912-7.999,2.362l-4.696-1.858L346.334,168.2z
		"/>
	<path clip-path="url(#SVGID_10_)" fill-rule="evenodd" clip-rule="evenodd" fill="#FFFFFF" d="M380.027,185.05
		c2.789,1.852,3.932,4.933,1.579,7.501c-2.36,2.55-6.162,2.361-8.951,0.503c-2.802-1.849-3.939-4.932-1.587-7.482
		C373.429,183.005,377.23,183.208,380.027,185.05 M383.082,181.732c-5.456-3.619-12.371-4.08-16.768,0.682
		c-4.389,4.764-2.182,10.343,3.271,13.955c5.464,3.617,12.388,4.08,16.78-0.682C390.749,190.924,388.547,185.345,383.082,181.732"/>
	<path clip-path="url(#SVGID_10_)" fill-rule="evenodd" clip-rule="evenodd" fill="#FFFFFF" d="M199.684,376.583l5.909,3.698
		c4.131,2.575,7.849,1.388,9.675-1.529c1.819-2.917,1.295-6.815-2.839-9.399l-11.765-7.352l-0.24,0.402
		c0.776,0.574,0.739,0.873,0.548,1.156l-9.558,15.292c-0.183,0.3-0.424,0.478-1.284,0.024l-0.245,0.391l6.765,4.23l0.233-0.395
		c-0.773-0.577-0.723-0.868-0.532-1.168L199.684,376.583z M204.209,369.335l4.999,3.117c1.771,1.105,2.319,2.186,1.529,3.466
		c-0.864,1.38-2.119,1.413-3.889,0.299l-4.987-3.1L204.209,369.335z"/>
	<path clip-path="url(#SVGID_10_)" fill-rule="evenodd" clip-rule="evenodd" fill="#FFFFFF" d="M224.842,397.768l0.179-0.432
		c-0.869-0.433-0.877-0.731-0.744-1.056l6.753-16.723c0.128-0.324,0.344-0.523,1.271-0.228l0.171-0.445l-7.389-2.983l-0.175,0.432
		c0.865,0.441,0.873,0.731,0.74,1.056l-6.753,16.714c-0.128,0.328-0.345,0.536-1.276,0.25l-0.17,0.424L224.842,397.768z"/>
	<path clip-path="url(#SVGID_10_)" fill-rule="evenodd" clip-rule="evenodd" fill="#FFFFFF" d="M244.02,396.048l3.694,0.855
		c0.308,0.906,3.101,7.027,3.017,7.368c-0.091,0.457-0.441,0.573-0.981,0.494l-0.099,0.449l7.849,1.815l0.105-0.461
		c-0.433-0.1-0.724-0.35-0.943-0.927l-3.009-7.293c3.341-0.142,6.029-1.463,6.827-4.937c0.989-4.289-0.935-6.812-6.516-8.087
		l-13.8-3.191l-0.113,0.448c0.931,0.299,0.982,0.574,0.906,0.932l-4.064,17.561c-0.074,0.342-0.245,0.582-1.213,0.441l-0.099,0.457
		l7.77,1.787l0.108-0.453c-0.931-0.295-0.989-0.578-0.898-0.919L244.02,396.048z M245.894,387.903l6.342,1.472
		c2.222,0.511,2.676,1.637,2.418,2.742c-0.245,1.089-1.151,1.912-3.374,1.388l-6.337-1.454L245.894,387.903z"/>
	<path clip-path="url(#SVGID_10_)" fill-rule="evenodd" clip-rule="evenodd" fill="#FFFFFF" d="M279.944,391.893l3.591,9.274
		l-7.197-0.125L279.944,391.893z M284.491,404.289c0.146,0.503,1.255,3.345,1.255,3.494c0,0.241-0.208,0.424-0.74,0.449
		l-0.017,0.466l7.63,0.133l0.008-0.466c-0.465-0.004-0.689-0.236-1.06-1.172c-2.302-5.925-6.853-17.582-6.853-17.884
		c0-0.392,0.274-0.467,0.698-0.499l0.013-0.458l-10.103-0.175v0.457c0.346,0.042,0.773,0.142,0.757,0.398
		c0,0.237-6.832,17.143-7.197,18.027c-0.254,0.615-0.474,0.773-1.023,0.881l-0.016,0.457l6.848,0.125l0.025-0.464
		c-0.549,0-0.699-0.167-0.699-0.4c0-0.224,0.25-0.731,1.305-3.536L284.491,404.289z"/>
	<path clip-path="url(#SVGID_10_)" fill-rule="evenodd" clip-rule="evenodd" fill="#FFFFFF" d="M312.383,405.818l-0.074-0.466
		c-0.973,0.079-1.122-0.166-1.181-0.507l-2.261-14.308l6.583-1.039c0.407-0.075,0.603,0.1,0.852,0.965l0.457-0.075l-1.076-6.803
		l-0.461,0.079c0.017,0.897-0.096,1.105-0.524,1.176l-18.878,2.987c-0.424,0.062-0.611-0.1-0.865-0.951l-0.452,0.062l1.08,6.807
		l0.453-0.073c-0.021-0.899,0.1-1.115,0.52-1.173l6.574-1.048l2.265,14.296c0.058,0.341-0.009,0.631-0.956,0.863l0.07,0.449
		L312.383,405.818z"/>
	<path clip-path="url(#SVGID_10_)" fill-rule="evenodd" clip-rule="evenodd" fill="#FFFFFF" d="M339.295,383.81l-0.433,0.166
		c0.066,0.507-0.041,0.96-0.765,1.242l-6.715,2.576l-1.155-2.991l11.602-4.464c0.399-0.141,0.603-0.016,1.039,0.77l0.433-0.171
		l-2.419-6.291l-0.432,0.184c0.207,0.859,0.137,1.096-0.259,1.254L322.157,383l0.166,0.44c0.931-0.282,1.139-0.066,1.264,0.267
		l6.457,16.829c0.134,0.329,0.121,0.615-0.76,1.039l0.17,0.433l18.027-6.924c0.391-0.149,0.619-0.017,0.955,0.549l0.433-0.166
		l-2.41-6.292l-0.434,0.171c0.242,0.951,0.159,1.18-0.231,1.342l-11.594,4.438l-1.293-3.358l6.716-2.576
		c0.728-0.273,1.113-0.017,1.404,0.42l0.437-0.17L339.295,383.81z"/>
	<path clip-path="url(#SVGID_10_)" fill-rule="evenodd" clip-rule="evenodd" fill="#FFFFFF" d="M356.744,389.375l0.457-0.15
		c0.062-0.315,0.116-0.677,0.387-0.839c0.748-0.466,4.118-0.482,9.607-3.907c7.131-4.445,7.306-8.9,5.543-11.723
		c-4.721-7.551-16.069,4.518-17.894,1.601c-0.474-0.748,0.017-2.161,2.863-3.948c3.096-1.92,7.413-3.341,7.916-2.518l0.233,0.365
		l0.523-0.05l-0.586-5.984l-0.453,0.091c-0.062,0.408-0.146,0.786-0.578,1.04c-0.885,0.565-4.99,1.222-9.495,4.022
		c-4.816,3.009-6.562,7.256-4.513,10.521c3.964,6.342,15.816-4.799,17.328-2.364c0.906,1.438-0.083,3.146-3.365,5.203
		c-3.416,2.132-7.846,2.847-8.403,1.97c-0.187-0.304-0.332-0.528-0.365-0.736l-0.433,0.038L356.744,389.375z"/>
	<path clip-path="url(#SVGID_10_)" fill-rule="evenodd" clip-rule="evenodd" fill="#FFFFFF" d="M275.664,311.657
		c-5.397,2.41-14.386,6.308-17.768,7.704c-23.459,9.691-33.603,13.983-33.931,14.266c-2.224,1.809-0.731,3.732-3.569,8.498
		c-3.383,5.711-6.292,6.351-6.292,6.351c3.906,0.864,11.02-8.901,12.367-11.129c1.039-1.712,5.427-3.3,5.427-3.3
		s20.267-8.834,46.8-20.981L275.664,311.657z M289.353,305.47l3.042,1.374c16.041-7.249,38.307-17.333,40.479-18.636
		c5.839-3.512,12.716-2.637,12.716-2.637c2.365-1.502-13.459-0.75-16.298,0.862C326.994,287.726,307.413,297.13,289.353,305.47
		 M227.792,339.117c0,0-10.405,16.082-17.266,12.441c0,0-3.204-1.026-2.427-6.375c0,0,0.914-0.689-0.004-2.717
		c0,0,1.6,1.154,1.6,4.085c-0.008,2.847,3.507,1.134,3.362-0.491c-0.175-2.082-3.823-5.045-8.599-8.024c0,0-2.314-3.271,1.647-7.022
		c0,0,6.274-0.789,14.216-2.136c4.529-0.761,5.934-2.243,14.877-6.042c5.144-2.19,20.62-8.969,33.177-14.558
		c-19.664-9.106-39.473-18.183-42.573-19.238c-6.766-2.318-16.248,1.374-21.031-6.046c-3.562-5.513,3.593-5.166,6.154-6.807
		c1.579-1.02,1.592-2.153,1.134-4.351c-0.482-2.354-1.445-5.519,2.527-7.117c2.942-1.182,2.693-2.828,8.876,5.132
		c2.294,2.945,7.497,6.136,14.785,11.295c3.458,2.446,23.143,11.655,43.643,20.959c19.032-8.679,40.517-18.683,43.724-20.959
		c7.281-5.159,12.484-8.35,14.787-11.295c6.166-7.96,5.934-6.314,8.867-5.132c3.978,1.598,3.014,4.763,2.527,7.117
		c-0.457,2.198-0.44,3.331,1.139,4.351c2.563,1.641,9.716,1.294,6.149,6.807c-4.782,7.42-14.266,3.728-21.026,6.046
		c-2.818,0.956-24.344,10.802-42.528,19.201c14.079,6.308,26.887,11.936,33.128,14.595c8.942,3.799,10.355,5.281,14.877,6.042
		c7.954,1.347,14.221,2.136,14.221,2.136c3.956,3.752,1.637,7.022,1.637,7.022c-4.771,2.979-8.419,5.942-8.589,8.024
		c-0.134,1.625,3.361,3.338,3.361,0.491c0-2.931,1.6-4.085,1.6-4.085c-0.918,2.027-0.008,2.717-0.008,2.717
		c0.777,5.349-2.423,6.375-2.423,6.375c-6.873,3.641-17.278-12.441-17.278-12.441c-7.077-5.909-14.72-6.176-37.384-16.764
		c-4.676-2.17-10.432-4.846-16.623-7.738l-16.854,7.738C242.516,332.941,234.882,333.208,227.792,339.117 M218.259,285.572
		c0,0,6.882-0.875,12.721,2.637c3.39,2.02,43.654,19.924,56.453,25.858c35.435,16.423,44.531,19.979,44.531,19.979
		s4.389,1.588,5.428,3.3c1.346,2.228,8.461,11.993,12.358,11.129c0,0-2.909-0.64-6.3-6.351c-2.83-4.766-1.338-6.689-3.558-8.498
		c-0.336-0.282-10.472-4.574-33.926-14.266c-27.609-11.411-67.595-30.766-71.405-32.927
		C231.732,284.822,215.907,284.07,218.259,285.572 M213.306,272.738c0.332,1.836,1.063,3.789-1.213,4.541
		c-1.775,0.568-5.245,2.419-4.256,3.207c0,0,0.997-1.102,4.48-1.47c3.308-0.352,4.679-1.452,3.682-3.254
		c-1.018-1.811-2.776-4.12-2.378-6.786C213.689,268.586,212.79,269.883,213.306,272.738 M275.257,285.942
		c-6.831-2.479-13.152-5.718-15.732-6.707c-3.208-1.241-2.777-3.036-3.409-4.464c-0.831-1.834,0.267-9.53,0.35-12.451
		c0.1-4.125-2.867-6.165-1.837-6.006c1.039,0.147,3.317,0.753,3.765,6.006c0.158,2.009,0.108,5.456,0.108,5.456
		s0.158,1.38,2.676,2.451c7.265,3.084,15.85,4.728,20.45,4.728c4.496,0,13.56-1.644,20.823-4.728
		c2.519-1.071,2.668-2.451,2.668-2.451s0.689-3.447,0.852-5.456c0.44-5.253,2.73-5.859,3.761-6.006
		c1.035-0.159-1.932,1.881-1.832,6.006c0.079,2.921,0.428,10.617-0.387,12.451c-0.636,1.428-0.208,3.223-3.416,4.464
		c-2.568,0.989-8.889,4.087-15.716,6.553c-1.422,0.507-4.21-1.012-6.354-1.165C280.996,284.548,276.67,286.447,275.257,285.942
		 M260.912,257.333c-0.228-1.86-1.047-0.752-1.579-0.575c-0.798-0.098-1.251,1.248-0.166,2.908c0.312,0.482,0,1.238,1.255,1.669
		C261.701,261.779,261.074,258.75,260.912,257.333 M303.041,257.919c0.171-1.001,0.773-1.338,1.33-1.161
		c1.413-0.672,1.745,1.08,0.661,2.748c-0.32,0.486-0.516,1.398-1.75,1.829C301.994,261.779,302.792,259.326,303.041,257.919
		 M274.825,259.693c0,0,0.399,1.1,7.032,1.1c6.191,0,6.939-1.1,6.939-1.1c-0.05-6.357-3.657-9.562-3.657-9.562
		c-1.479-5.647-3.241-5.446-3.241-5.446s-2.086-0.097-3.408,5.446C278.49,250.131,274.916,253.48,274.825,259.693 M277.119,230.746
		c-0.707,0.658-1.471,1.132-2.327,0.984c-0.574-0.101-1.055-0.477-1.355-1.263c-1.139-2.951,0.515-2.693-0.939-3.312
		c-0.523-0.214-0.217,0.854-2.26-0.426c-1.148-0.715-4.331,2.707-4.763,2.707c-3.868,0-9.217,3.886-9.438,8.981
		c-0.269,6.237-0.302,7.713,8.249,9.445c0,0-2.343,1.671-4.695,6.9c0,0-3.773,0.709-5.535-1.732c0,0-1.509-1.758-3.707-3.198
		c-3.35-2.198-3.582-4.489-3.715-4.638c-0.37-0.444-0.391-5.778,0.341-6.571c3.918-4.198,7.006-6.874,5.019-15.033
		c-1.163-4.8-2.8-4.875-3.495-5.864c0,0-2.983,4.44-0.564,8.795c2.281,4.131,0.411,8.282-1.185,9.191
		c-1.588,0.905-0.69-0.134-0.69-0.134s1.729-2.319-1.525-11.319c-3.254-9.009-0.586-29.948,20.811-35.706
		c5.714-1.541,11.083-2.194,15.987-2.279h0.955c4.913,0.085,10.249,0.888,15.996,2.279c20.309,4.925,24.053,26.697,20.803,35.706
		c-3.254,9-1.525,11.319-1.525,11.319s0.898,1.039-0.689,0.134c-1.588-0.909-4.982-5.239-2.743-8.911
		c4.181-6.875,0.175-9.891,0.175-9.891c-0.682,0.992-2.161,1.813-3.333,6.619c-1.736,7.117,1.696,13.226,5.262,17.123
		c0.527,0.576,0.199,2.768,0.507,4.542c0.096,0.551-2.867,2.44-2.867,2.44c-2.028,7.928-9.837,7.128-9.837,7.128
		c-2.348-5.229-4.691-6.9-4.691-6.9c8.553-1.732,8.502-3.208,8.24-9.445c-0.212-5.095-5.56-8.981-9.433-8.981
		c-0.52,0-4.409-4.629-6.702-2.763c-1.223,1,0.145,0.843-0.998,3.794c-0.798,2.082-2.419,1.298-3.89,0.062
		c-0.628,0.541-1.505,1.276-2.228,1.91c1.18,1.207,2.145,3.07,2.801,4.939c0.772,2.209,5.527,11.087,9.77,10.796
		c0,0,3.304,3.408,3.91,8.249c0.607,4.838-1.047,6.765-1.047,6.765s-11.814,3.944-17.952,3.573
		c-6.146,0.371-17.96-3.573-17.96-3.573s-1.646-1.927-1.039-6.765c0.615-4.841,3.906-8.249,3.906-8.249
		c4.238,0.291,8.992-8.587,9.778-10.796c0.66-1.887,1.533-3.811,2.639-5.003C278.415,231.253,277.912,230.711,277.119,230.746
		 M350.552,272.738c0.516-2.855-0.374-4.152-0.319-3.762c0.398,2.666-1.363,4.975-2.373,6.786c-0.985,1.802,0.37,2.902,3.678,3.254
		c3.474,0.368,4.488,1.47,4.488,1.47c0.98-0.788-2.485-2.639-4.256-3.207C349.488,276.527,350.224,274.574,350.552,272.738"/>
</g>
<g>
	<defs>
		<path id="SVGID_11_" d="M172.319,231.164c0,33.725-17.329,62.164-17.329,92.718c0,40.367,27.515,86.944,117.359,115.392
			c-30.977-14.481-112.285-42.91-112.285-116.219c0-26.163,18.626-57.898,18.626-84.89c0-36.779-19.781-54.541-19.781-54.541
			S172.319,199.825,172.319,231.164"/>
	</defs>
	<clipPath id="SVGID_12_">
		<use xlink:href="#SVGID_11_"  overflow="visible"/>
	</clipPath>
	
		<linearGradient id="SVGID_13_" gradientUnits="userSpaceOnUse" x1="-4.882812e-04" y1="566.9282" x2="0.9995" y2="566.9282" gradientTransform="matrix(117.3584 0 0 -117.3584 155 66845.3359)">
		<stop  offset="0" style="stop-color:#968F40"/>
		<stop  offset="0.0041" style="stop-color:#989142"/>
		<stop  offset="0.1591" style="stop-color:#CFC99B"/>
		<stop  offset="0.2674" style="stop-color:#F0EDDC"/>
		<stop  offset="0.319" style="stop-color:#FFFFFF"/>
		<stop  offset="0.3337" style="stop-color:#FDFCF8"/>
		<stop  offset="0.3467" style="stop-color:#F9F7EB"/>
		<stop  offset="0.3592" style="stop-color:#F3F0D8"/>
		<stop  offset="0.3714" style="stop-color:#EDE7C0"/>
		<stop  offset="0.3831" style="stop-color:#E3DCA2"/>
		<stop  offset="0.3865" style="stop-color:#E0D898"/>
		<stop  offset="0.39" style="stop-color:#DDD594"/>
		<stop  offset="0.4202" style="stop-color:#C7BF78"/>
		<stop  offset="0.4544" style="stop-color:#B5AD63"/>
		<stop  offset="0.4949" style="stop-color:#A79F53"/>
		<stop  offset="0.5449" style="stop-color:#9D9648"/>
		<stop  offset="0.615" style="stop-color:#989142"/>
		<stop  offset="0.8098" style="stop-color:#968F40"/>
		<stop  offset="1" style="stop-color:#968F40"/>
		<stop  offset="1" style="stop-color:#989142"/>
		<stop  offset="1" style="stop-color:#CFC99B"/>
		<stop  offset="1" style="stop-color:#F0EDDC"/>
		<stop  offset="1" style="stop-color:#FFFFFF"/>
	</linearGradient>
	<rect x="154.99" y="183.624" clip-path="url(#SVGID_12_)" fill="url(#SVGID_13_)" width="117.359" height="255.65"/>
</g>
<g>
	<defs>
		<path id="SVGID_14_" d="M388.243,238.165c0,26.992,18.629,58.727,18.629,84.89c0,73.309-81.312,101.737-112.292,116.219
			c89.86-28.447,117.366-75.024,117.366-115.392c0-30.555-17.324-58.993-17.324-92.718c0-31.339,13.397-47.54,13.397-47.54
			S388.243,201.386,388.243,238.165"/>
	</defs>
	<clipPath id="SVGID_15_">
		<use xlink:href="#SVGID_14_"  overflow="visible"/>
	</clipPath>
	
		<linearGradient id="SVGID_16_" gradientUnits="userSpaceOnUse" x1="0" y1="566.9399" x2="1" y2="566.9399" gradientTransform="matrix(78.928 116.4762 116.4762 -78.928 -65713.0234 45012.8867)">
		<stop  offset="0" style="stop-color:#968F40"/>
		<stop  offset="0.0041" style="stop-color:#989142"/>
		<stop  offset="0.1591" style="stop-color:#CFC99B"/>
		<stop  offset="0.2674" style="stop-color:#F0EDDC"/>
		<stop  offset="0.319" style="stop-color:#FFFFFF"/>
		<stop  offset="0.3337" style="stop-color:#FDFCF8"/>
		<stop  offset="0.3467" style="stop-color:#F9F7EB"/>
		<stop  offset="0.3592" style="stop-color:#F3F0D8"/>
		<stop  offset="0.3714" style="stop-color:#EDE7C0"/>
		<stop  offset="0.3831" style="stop-color:#E3DCA2"/>
		<stop  offset="0.3865" style="stop-color:#E0D898"/>
		<stop  offset="0.39" style="stop-color:#DDD594"/>
		<stop  offset="0.4202" style="stop-color:#C7BF78"/>
		<stop  offset="0.4544" style="stop-color:#B5AD63"/>
		<stop  offset="0.4949" style="stop-color:#A79F53"/>
		<stop  offset="0.5449" style="stop-color:#9D9648"/>
		<stop  offset="0.615" style="stop-color:#989142"/>
		<stop  offset="0.8098" style="stop-color:#968F40"/>
		<stop  offset="1" style="stop-color:#968F40"/>
		<stop  offset="1" style="stop-color:#989142"/>
		<stop  offset="1" style="stop-color:#CFC99B"/>
		<stop  offset="1" style="stop-color:#F0EDDC"/>
		<stop  offset="1" style="stop-color:#FFFFFF"/>
	</linearGradient>
	<polygon clip-path="url(#SVGID_15_)" fill="url(#SVGID_16_)" points="375.013,129.121 530.668,358.825 331.514,493.778 
		175.858,264.074 	"/>
</g>
<g>
	<defs>
		<rect id="SVGID_17_" width="566.929" height="566.929"/>
	</defs>
	<clipPath id="SVGID_18_">
		<use xlink:href="#SVGID_17_"  overflow="visible"/>
	</clipPath>
	<path clip-path="url(#SVGID_18_)" fill-rule="evenodd" clip-rule="evenodd" fill="#FFFFFF" d="M269.764,132.746
		c0.141,0.285-51.929-0.986-136.299,38.691c0,0,20.665,6.346,20.665,57.008c0,33.293-20.561,62.957-20.561,101.699
		c0,52.689,59.375,94.32,138.78,109.13c-0.258,0-124.298-29.147-124.298-116.219c0-39.574,16.485-58.664,16.485-85.886
		c0-31.711-12.674-56.94-12.674-56.94S188.593,150.219,269.764,132.746"/>
	<path clip-path="url(#SVGID_18_)" fill-rule="evenodd" clip-rule="evenodd" fill="#FFFFFF" d="M297.174,132.746
		c-0.142,0.285,51.928-0.986,136.294,38.691c0,0-20.657,6.346-20.657,57.008c0,33.293,20.565,62.957,20.565,101.699
		c0,52.689-59.382,94.32-138.796,109.13c0.274,0,124.302-29.147,124.302-116.219c0-39.574-16.48-58.664-16.48-85.886
		c0-31.711,12.674-56.94,12.674-56.94S378.336,150.219,297.174,132.746"/>
	<path clip-path="url(#SVGID_18_)" fill="#ED1C24" d="M56.665,282.694c0-99.385,64.287-183.972,153.433-214.548l-1.563-4.721
		C117.407,94.65,51.691,181.113,51.691,282.694c0,96.657,59.487,179.636,143.762,214.364l1.924-4.594
		C114.901,458.498,56.665,377.29,56.665,282.694"/>
	<path clip-path="url(#SVGID_18_)" fill="#ED1C24" d="M358.136,63.337l-1.575,4.721c89.291,30.492,153.702,115.155,153.702,214.635
		c0,94.663-58.318,175.921-140.898,209.847l1.94,4.588c84.358-34.688,143.929-117.72,143.929-214.435
		C515.233,181.018,449.392,94.487,358.136,63.337"/>
	<polygon clip-path="url(#SVGID_18_)" fill="#FFFFFF" points="229.396,490.803 221.982,490.571 221.667,485.741 232.875,485.758 
		237.607,486.972 229.621,518.396 222.827,516.66 	"/>
	<polygon clip-path="url(#SVGID_18_)" fill="none" stroke="#FFFFFF" stroke-width="2.128" stroke-miterlimit="10" points="
		229.396,490.803 221.982,490.571 221.667,485.741 232.875,485.758 237.607,486.972 229.621,518.396 222.827,516.66 	"/>
	<path clip-path="url(#SVGID_18_)" fill="#FFFFFF" d="M269.049,509.304c-2.443,1.928-5.66,2.901-9.774,2.489
		c-8.519-0.844-13.78-5.39-13.156-11.565l0.008-0.091c0.631-6.271,7.172-10.473,16.033-9.591c5.027,0.498,8.177,1.969,10.803,4.496
		c2.677,2.668,4.214,6.379,3.574,12.69l-0.008,0.092c-1.031,10.299-8.095,16.806-18.9,15.725c-5.543-0.548-9.27-2.535-12.417-5.111
		l4.264-3.923c2.826,2.318,5.411,3.591,8.844,3.932C265.405,519.153,268.567,513.551,269.049,509.304 M269.473,502.227l0.008-0.091
		c0.337-3.342-2.663-6.229-7.754-6.736c-4.97-0.49-8.212,1.865-8.54,5.161l-0.012,0.091c-0.333,3.342,2.626,6.034,7.601,6.533
		C265.866,507.692,269.161,505.339,269.473,502.227"/>
	<path clip-path="url(#SVGID_18_)" fill="none" stroke="#FFFFFF" stroke-width="2.128" stroke-miterlimit="10" d="M269.049,509.304
		c-2.443,1.928-5.66,2.901-9.774,2.489c-8.519-0.844-13.78-5.39-13.156-11.565l0.008-0.091c0.631-6.271,7.172-10.473,16.033-9.591
		c5.027,0.498,8.177,1.969,10.803,4.496c2.677,2.668,4.214,6.379,3.574,12.69l-0.008,0.092c-1.031,10.299-8.095,16.806-18.9,15.725
		c-5.543-0.548-9.27-2.535-12.417-5.111l4.264-3.923c2.826,2.318,5.411,3.591,8.844,3.932
		C265.405,519.153,268.567,513.551,269.049,509.304z M269.473,502.227l0.008-0.091c0.337-3.342-2.663-6.229-7.754-6.736
		c-4.97-0.49-8.212,1.865-8.54,5.161l-0.012,0.091c-0.333,3.342,2.626,6.034,7.601,6.533
		C265.866,507.692,269.161,505.339,269.473,502.227z"/>
	<path clip-path="url(#SVGID_18_)" fill="#FFFFFF" d="M286.07,519.751l4.654-4.039c3.066,2.493,6.391,3.765,10.862,3.428
		c3.952-0.299,6.79-2.447,6.565-5.381l-0.008-0.092c-0.237-3.166-3.981-4.684-9.6-4.264l-3.267,0.249l-1.412-3.448l10.14-10.032
		l-17.362,1.31l-0.37-4.908l26.533-1.994l0.316,4.213l-10.48,10.016c6.117,0.141,12.034,2.186,12.479,8.099l0.004,0.096
		c0.448,5.918-4.904,10.605-13.273,11.237C294.863,524.763,289.702,522.801,286.07,519.751"/>
	<path clip-path="url(#SVGID_18_)" fill="none" stroke="#FFFFFF" stroke-width="2.128" stroke-miterlimit="10" d="M286.07,519.751
		l4.654-4.039c3.066,2.493,6.391,3.765,10.862,3.428c3.952-0.299,6.79-2.447,6.565-5.381l-0.008-0.092
		c-0.237-3.166-3.981-4.684-9.6-4.264l-3.267,0.249l-1.412-3.448l10.14-10.032l-17.362,1.31l-0.37-4.908l26.533-1.994l0.316,4.213
		l-10.48,10.016c6.117,0.141,12.034,2.186,12.479,8.099l0.004,0.096c0.448,5.918-4.904,10.605-13.273,11.237
		C294.863,524.763,289.702,522.801,286.07,519.751z"/>
	<polygon clip-path="url(#SVGID_18_)" fill="#FFFFFF" points="341.16,489.366 321.514,494.21 320.324,489.39 347.784,482.617 
		348.811,486.768 337.911,518.213 330.152,520.125 	"/>
	<polygon clip-path="url(#SVGID_18_)" fill="none" stroke="#FFFFFF" stroke-width="2.128" stroke-miterlimit="10" points="
		341.16,489.366 321.514,494.21 320.324,489.39 347.784,482.617 348.811,486.768 337.911,518.213 330.152,520.125 	"/>
</g>
</svg>
