<svg width="399" height="400" viewBox="0 0 399 400" fill="none" xmlns="http://www.w3.org/2000/svg">
<rect x="2" y="2" width="395" height="396" fill="white"/>
<path d="M102.17 213V186.818H111.017C113.071 186.818 114.75 187.189 116.054 187.93C117.366 188.663 118.338 189.656 118.969 190.909C119.599 192.162 119.915 193.56 119.915 195.102C119.915 196.645 119.599 198.047 118.969 199.308C118.347 200.57 117.384 201.575 116.08 202.325C114.776 203.067 113.105 203.438 111.068 203.438H104.727V200.625H110.966C112.372 200.625 113.501 200.382 114.354 199.896C115.206 199.411 115.824 198.754 116.207 197.928C116.599 197.092 116.795 196.151 116.795 195.102C116.795 194.054 116.599 193.116 116.207 192.29C115.824 191.463 115.202 190.815 114.341 190.347C113.48 189.869 112.338 189.631 110.915 189.631H105.341V213H102.17ZM127.63 186.818V213H124.613V186.818H127.63ZM138.934 213.46C137.69 213.46 136.561 213.226 135.547 212.757C134.532 212.28 133.727 211.594 133.13 210.699C132.534 209.795 132.235 208.705 132.235 207.426C132.235 206.301 132.457 205.389 132.9 204.69C133.343 203.983 133.936 203.429 134.677 203.028C135.419 202.628 136.237 202.33 137.132 202.134C138.035 201.929 138.943 201.767 139.855 201.648C141.048 201.494 142.015 201.379 142.757 201.303C143.507 201.217 144.052 201.077 144.393 200.881C144.743 200.685 144.917 200.344 144.917 199.858V199.756C144.917 198.494 144.572 197.514 143.882 196.815C143.2 196.116 142.164 195.767 140.775 195.767C139.335 195.767 138.206 196.082 137.387 196.713C136.569 197.344 135.994 198.017 135.662 198.733L132.798 197.71C133.309 196.517 133.991 195.588 134.843 194.923C135.704 194.25 136.642 193.781 137.656 193.517C138.679 193.244 139.684 193.108 140.673 193.108C141.304 193.108 142.028 193.185 142.846 193.338C143.673 193.483 144.47 193.786 145.237 194.246C146.012 194.706 146.656 195.401 147.167 196.33C147.679 197.259 147.934 198.503 147.934 200.062V213H144.917V210.341H144.764C144.559 210.767 144.218 211.223 143.741 211.709C143.264 212.195 142.629 212.608 141.836 212.949C141.044 213.29 140.076 213.46 138.934 213.46ZM139.395 210.75C140.588 210.75 141.593 210.516 142.412 210.047C143.238 209.578 143.86 208.973 144.278 208.232C144.704 207.49 144.917 206.71 144.917 205.892V203.131C144.789 203.284 144.508 203.425 144.074 203.553C143.647 203.672 143.153 203.778 142.591 203.872C142.037 203.957 141.495 204.034 140.967 204.102C140.447 204.162 140.025 204.213 139.701 204.256C138.917 204.358 138.184 204.524 137.502 204.754C136.829 204.976 136.284 205.312 135.866 205.764C135.457 206.207 135.252 206.812 135.252 207.58C135.252 208.628 135.64 209.42 136.416 209.957C137.2 210.486 138.193 210.75 139.395 210.75ZM161.418 213.409C159.577 213.409 157.992 212.974 156.663 212.105C155.333 211.236 154.31 210.038 153.594 208.513C152.879 206.987 152.521 205.244 152.521 203.284C152.521 201.29 152.887 199.53 153.62 198.004C154.362 196.47 155.393 195.273 156.714 194.412C158.043 193.543 159.594 193.108 161.367 193.108C162.748 193.108 163.992 193.364 165.1 193.875C166.208 194.386 167.116 195.102 167.823 196.023C168.531 196.943 168.969 198.017 169.14 199.244H166.123C165.893 198.349 165.381 197.557 164.589 196.866C163.805 196.168 162.748 195.818 161.418 195.818C160.242 195.818 159.211 196.125 158.325 196.739C157.447 197.344 156.761 198.2 156.266 199.308C155.781 200.408 155.538 201.699 155.538 203.182C155.538 204.699 155.776 206.02 156.254 207.145C156.739 208.27 157.421 209.143 158.299 209.766C159.185 210.388 160.225 210.699 161.418 210.699C162.202 210.699 162.914 210.562 163.553 210.29C164.192 210.017 164.734 209.625 165.177 209.114C165.62 208.602 165.935 207.989 166.123 207.273H169.14C168.969 208.432 168.548 209.476 167.874 210.405C167.21 211.325 166.327 212.058 165.228 212.604C164.137 213.141 162.867 213.409 161.418 213.409ZM181.783 213.409C179.891 213.409 178.259 212.991 176.887 212.156C175.523 211.312 174.471 210.136 173.729 208.628C172.996 207.111 172.63 205.347 172.63 203.335C172.63 201.324 172.996 199.551 173.729 198.017C174.471 196.474 175.502 195.273 176.823 194.412C178.153 193.543 179.704 193.108 181.477 193.108C182.499 193.108 183.509 193.278 184.506 193.619C185.504 193.96 186.411 194.514 187.229 195.281C188.048 196.04 188.7 197.045 189.185 198.298C189.671 199.551 189.914 201.094 189.914 202.926V204.205H174.778V201.597H186.846C186.846 200.489 186.624 199.5 186.181 198.631C185.746 197.761 185.124 197.075 184.315 196.572C183.513 196.07 182.567 195.818 181.477 195.818C180.275 195.818 179.235 196.116 178.357 196.713C177.488 197.301 176.819 198.068 176.35 199.014C175.881 199.96 175.647 200.974 175.647 202.057V203.795C175.647 205.278 175.903 206.536 176.414 207.567C176.934 208.589 177.654 209.369 178.575 209.906C179.495 210.435 180.565 210.699 181.783 210.699C182.576 210.699 183.292 210.588 183.931 210.366C184.579 210.136 185.137 209.795 185.606 209.344C186.075 208.884 186.437 208.312 186.692 207.631L189.607 208.449C189.3 209.438 188.785 210.307 188.06 211.057C187.336 211.798 186.441 212.378 185.376 212.795C184.31 213.205 183.113 213.409 181.783 213.409ZM197.521 201.188V213H194.504V186.818H197.521V196.432H197.776C198.237 195.418 198.927 194.612 199.847 194.016C200.776 193.411 202.012 193.108 203.555 193.108C204.893 193.108 206.065 193.376 207.07 193.913C208.076 194.442 208.856 195.256 209.41 196.355C209.972 197.446 210.254 198.835 210.254 200.523V213H207.237V200.727C207.237 199.168 206.832 197.962 206.022 197.109C205.221 196.249 204.109 195.818 202.685 195.818C201.697 195.818 200.81 196.027 200.026 196.445C199.251 196.862 198.637 197.472 198.185 198.273C197.742 199.074 197.521 200.045 197.521 201.188ZM223.75 213.409C221.978 213.409 220.422 212.987 219.084 212.143C217.755 211.3 216.715 210.119 215.965 208.602C215.223 207.085 214.853 205.312 214.853 203.284C214.853 201.239 215.223 199.453 215.965 197.928C216.715 196.402 217.755 195.217 219.084 194.374C220.422 193.53 221.978 193.108 223.75 193.108C225.523 193.108 227.074 193.53 228.404 194.374C229.742 195.217 230.782 196.402 231.523 197.928C232.273 199.453 232.648 201.239 232.648 203.284C232.648 205.312 232.273 207.085 231.523 208.602C230.782 210.119 229.742 211.3 228.404 212.143C227.074 212.987 225.523 213.409 223.75 213.409ZM223.75 210.699C225.097 210.699 226.205 210.354 227.074 209.663C227.944 208.973 228.587 208.065 229.005 206.94C229.422 205.815 229.631 204.597 229.631 203.284C229.631 201.972 229.422 200.749 229.005 199.615C228.587 198.482 227.944 197.565 227.074 196.866C226.205 196.168 225.097 195.818 223.75 195.818C222.404 195.818 221.296 196.168 220.426 196.866C219.557 197.565 218.914 198.482 218.496 199.615C218.078 200.749 217.87 201.972 217.87 203.284C217.87 204.597 218.078 205.815 218.496 206.94C218.914 208.065 219.557 208.973 220.426 209.663C221.296 210.354 222.404 210.699 223.75 210.699ZM240.271 186.818V213H237.254V186.818H240.271ZM253.211 213.409C251.575 213.409 250.13 212.996 248.877 212.169C247.625 211.334 246.645 210.158 245.937 208.641C245.23 207.115 244.876 205.312 244.876 203.233C244.876 201.17 245.23 199.381 245.937 197.864C246.645 196.347 247.629 195.175 248.89 194.348C250.152 193.521 251.609 193.108 253.262 193.108C254.541 193.108 255.551 193.321 256.292 193.747C257.042 194.165 257.613 194.642 258.005 195.179C258.406 195.707 258.717 196.142 258.939 196.483H259.194V186.818H262.211V213H259.297V209.983H258.939C258.717 210.341 258.402 210.793 257.993 211.338C257.583 211.875 257 212.357 256.241 212.783C255.483 213.2 254.473 213.409 253.211 213.409ZM253.62 210.699C254.831 210.699 255.853 210.384 256.689 209.753C257.524 209.114 258.159 208.232 258.593 207.107C259.028 205.973 259.245 204.665 259.245 203.182C259.245 201.716 259.032 200.433 258.606 199.334C258.18 198.226 257.549 197.365 256.714 196.751C255.879 196.129 254.848 195.818 253.62 195.818C252.342 195.818 251.277 196.146 250.424 196.803C249.581 197.45 248.946 198.332 248.52 199.449C248.102 200.557 247.893 201.801 247.893 203.182C247.893 204.58 248.106 205.849 248.532 206.991C248.967 208.125 249.606 209.028 250.45 209.702C251.302 210.366 252.359 210.699 253.62 210.699ZM276.389 213.409C274.497 213.409 272.865 212.991 271.493 212.156C270.129 211.312 269.076 210.136 268.335 208.628C267.602 207.111 267.235 205.347 267.235 203.335C267.235 201.324 267.602 199.551 268.335 198.017C269.076 196.474 270.108 195.273 271.429 194.412C272.758 193.543 274.309 193.108 276.082 193.108C277.105 193.108 278.115 193.278 279.112 193.619C280.109 193.96 281.017 194.514 281.835 195.281C282.653 196.04 283.305 197.045 283.791 198.298C284.277 199.551 284.52 201.094 284.52 202.926V204.205H269.383V201.597H281.451C281.451 200.489 281.23 199.5 280.787 198.631C280.352 197.761 279.73 197.075 278.92 196.572C278.119 196.07 277.173 195.818 276.082 195.818C274.88 195.818 273.841 196.116 272.963 196.713C272.093 197.301 271.424 198.068 270.956 199.014C270.487 199.96 270.252 200.974 270.252 202.057V203.795C270.252 205.278 270.508 206.536 271.02 207.567C271.539 208.589 272.26 209.369 273.18 209.906C274.1 210.435 275.17 210.699 276.389 210.699C277.181 210.699 277.897 210.588 278.537 210.366C279.184 210.136 279.743 209.795 280.211 209.344C280.68 208.884 281.042 208.312 281.298 207.631L284.213 208.449C283.906 209.438 283.39 210.307 282.666 211.057C281.941 211.798 281.047 212.378 279.981 212.795C278.916 213.205 277.718 213.409 276.389 213.409ZM289.109 213V193.364H292.024V196.33H292.228C292.586 195.358 293.234 194.57 294.172 193.964C295.109 193.359 296.166 193.057 297.342 193.057C297.564 193.057 297.841 193.061 298.173 193.07C298.505 193.078 298.757 193.091 298.927 193.108V196.176C298.825 196.151 298.591 196.112 298.224 196.061C297.866 196.001 297.487 195.972 297.086 195.972C296.132 195.972 295.279 196.172 294.529 196.572C293.788 196.964 293.2 197.51 292.765 198.209C292.339 198.899 292.126 199.687 292.126 200.574V213H289.109Z" fill="#CCCCCC"/>
<rect x="2" y="2" width="395" height="396" stroke="#CCCCCC" stroke-width="4" stroke-dasharray="8 8"/>
</svg>
