<svg width="200" height="200" viewBox="0 0 200 200" fill="none" xmlns="http://www.w3.org/2000/svg">
<g clip-path="url(#clip0_8_1061)">
<mask id="mask0_8_1061" style="mask-type:luminance" maskUnits="userSpaceOnUse" x="0" y="0" width="200" height="200">
<path d="M200 0H0V200H200V0Z" fill="white"/>
</mask>
<g mask="url(#mask0_8_1061)">
<path d="M99.9984 200C44.8564 200 0 155.142 0 99.9991C0 44.861 44.8564 0 99.9984 0C155.141 0 200 44.861 200 99.9991C200 155.142 155.141 200 99.9984 200Z" fill="black"/>
</g>
<mask id="mask1_8_1061" style="mask-type:luminance" maskUnits="userSpaceOnUse" x="88" y="10" width="24" height="22">
<path d="M97.1951 18.4012L88.8745 18.6496L95.4609 23.7412L93.1255 31.7242L99.9983 27.0341L106.874 31.7242L104.539 23.7412L111.121 18.6496L102.801 18.4012L99.9983 10.566L97.1951 18.4012Z" fill="white"/>
</mask>
<g mask="url(#mask1_8_1061)">
<path d="M100.671 -0.53656L121.68 21.7858L99.324 42.8269L78.3147 20.5049L100.671 -0.53656Z" fill="url(#paint0_linear_8_1061)"/>
</g>
<mask id="mask2_8_1061" style="mask-type:luminance" maskUnits="userSpaceOnUse" x="4" y="4" width="192" height="192">
<path d="M25.6109 155.142C-4.79712 114.129 3.83641 56.0194 44.8518 25.6152C85.8661 -4.79461 143.975 3.8368 174.382 44.8522C204.792 85.8714 196.163 143.974 155.143 174.388C138.602 186.648 119.277 192.561 100.115 192.562C71.7603 192.564 43.7564 179.62 25.6109 155.142ZM43.0036 23.1285C0.62014 54.5511 -8.29773 114.603 23.1256 156.989C54.5468 199.374 114.599 208.293 156.989 176.871C199.374 145.447 208.297 85.3973 176.874 43.0089C158.123 17.7204 129.177 4.34445 99.8784 4.34198C80.0696 4.34022 60.1041 10.4521 43.0036 23.1285Z" fill="white"/>
</mask>
<g mask="url(#mask2_8_1061)">
<path d="M89.4842 -112.58L314.338 91.404L110.515 316.079L-114.338 112.095L89.4842 -112.58Z" fill="url(#paint1_linear_8_1061)"/>
</g>
<mask id="mask3_8_1061" style="mask-type:luminance" maskUnits="userSpaceOnUse" x="0" y="0" width="200" height="200">
<path d="M200 0H0V200H200V0Z" fill="white"/>
</mask>
<g mask="url(#mask3_8_1061)">
<path d="M100.62 164.064L99.8021 163.79C99.5531 163.707 74.883 155.4 59.48 145.719C45.2902 136.801 39.239 127.851 39.239 115.792C39.239 107.536 41.5419 100.857 43.7704 94.3984C45.7492 88.6605 47.6185 83.2408 47.6185 77.2661C47.6185 67.8932 42.8278 61.6934 41.3617 60.0156C40.8163 59.394 40.5408 58.7287 40.5408 58.0397C40.5408 57.0389 41.1211 56.0603 41.9829 55.6112C66.3348 42.9338 93.7446 42.2924 98.9929 42.2924C99.6293 42.2924 99.981 42.3026 100.016 42.3026C100.016 42.3026 100.368 42.2924 101.006 42.2924C106.251 42.2924 133.661 42.9338 158.017 55.6105C158.88 56.0642 159.459 57.0399 159.459 58.0397C159.459 58.7319 159.184 59.3954 158.637 60.017C157.173 61.6952 152.383 67.9055 152.383 77.2661C152.383 83.2408 154.249 88.6605 156.228 94.3984C158.456 100.857 160.759 107.535 160.759 115.792C160.759 127.854 154.71 136.803 140.522 145.719C126.386 154.6 104.431 162.334 100.62 163.646V164.064ZM98.9925 43.5335C93.7958 43.5335 66.6527 44.1674 42.5558 56.7097C42.1 56.9496 41.7804 57.4957 41.7804 58.0397C41.7804 58.425 41.9476 58.8049 42.2937 59.2C43.8332 60.9583 48.8586 67.4617 48.8586 77.2661C48.8586 83.4475 46.9539 88.9632 44.9427 94.8027C42.7453 101.166 40.479 107.744 40.479 115.792C40.479 127.37 46.3574 136.008 60.1376 144.668C74.6893 153.814 97.6262 161.742 99.9955 162.549C103.068 161.498 125.537 153.664 139.861 144.668C153.642 136.008 159.521 127.374 159.521 115.792C159.521 107.744 157.251 101.166 155.055 94.8027C153.044 88.9632 151.141 83.4475 151.141 77.2661C151.141 67.4741 156.162 60.9628 157.703 59.2C158.052 58.8049 158.219 58.425 158.219 58.0397C158.219 57.4975 157.9 56.9496 157.442 56.709C133.347 44.1674 106.2 43.5335 101.006 43.5335C100.365 43.5335 100.019 43.5416 100.019 43.5416C99.9778 43.5416 99.6318 43.5335 98.9925 43.5335Z" fill="white"/>
</g>
<mask id="mask4_8_1061" style="mask-type:luminance" maskUnits="userSpaceOnUse" x="0" y="0" width="200" height="200">
<path d="M200 0H0V200H200V0Z" fill="white"/>
</mask>
<g mask="url(#mask4_8_1061)">
<path fill-rule="evenodd" clip-rule="evenodd" d="M65.3734 65.2554C66.3597 64.601 67.701 64.5354 68.5325 65.4357C69.365 66.3399 68.9593 67.4254 67.9765 68.0773C66.9901 68.7335 65.6489 68.8001 64.8146 67.8967C63.9848 66.9953 64.3866 65.9109 65.3734 65.2554ZM64.2928 64.0824C62.3663 65.357 61.5926 67.3266 63.1389 69.01C64.6872 70.6886 67.1323 70.521 69.0528 69.2489C70.9822 67.9746 71.7576 66.0072 70.2092 64.3273C68.6616 62.6459 66.2207 62.8103 64.2928 64.0824Z" fill="white"/>
</g>
<mask id="mask5_8_1061" style="mask-type:luminance" maskUnits="userSpaceOnUse" x="0" y="0" width="200" height="200">
<path d="M200 0H0V200H200V0Z" fill="white"/>
</mask>
<g mask="url(#mask5_8_1061)">
<path fill-rule="evenodd" clip-rule="evenodd" d="M75.8327 62.653L77.1084 62.1485C77.4072 62.3136 79.624 63.2915 79.6798 63.3913C79.7514 63.5219 79.6798 63.6175 79.5023 63.7018L79.5753 63.8351L82.2861 62.7637L82.2141 62.6293C82.0691 62.6904 81.9224 62.6794 81.7262 62.5828L79.1813 61.3593C80.1225 60.6774 80.6062 59.8251 80.0477 58.8098C79.351 57.5529 78.2165 57.3006 76.2899 58.0644L71.52 59.95L71.593 60.0816C71.9275 59.9747 72.0121 60.0347 72.0668 60.132L74.9003 65.2815C74.9515 65.3782 74.9561 65.472 74.6453 65.6227L74.7155 65.7549L77.4015 64.6959L77.3253 64.564C76.9895 64.668 76.9087 64.6063 76.853 64.5075L75.8327 62.653ZM74.5165 60.2693L76.7115 59.4042C77.4781 59.1016 77.8693 59.2935 78.0468 59.6134C78.2256 59.9327 78.1466 60.3133 77.3754 60.6189L75.1854 61.486L74.5165 60.2693Z" fill="white"/>
</g>
<mask id="mask6_8_1061" style="mask-type:luminance" maskUnits="userSpaceOnUse" x="0" y="0" width="200" height="200">
<path d="M200 0H0V200H200V0Z" fill="white"/>
</mask>
<g mask="url(#mask6_8_1061)">
<path fill-rule="evenodd" clip-rule="evenodd" d="M85.717 55.7336C85.6906 55.6264 85.7096 55.5336 86.0511 55.4426L86.0148 55.2986L83.1294 55.8627L83.1664 56.0077C83.5238 55.9622 83.5855 56.0384 83.6148 56.1425L85.1233 61.6748C85.1512 61.7816 85.1335 61.873 84.7906 61.9679L84.8284 62.1108L92.1439 60.6792C92.2963 60.6478 92.3683 60.6976 92.4784 60.9396L92.648 60.9036L92.0765 58.8137L91.9093 58.8458C91.9418 59.1312 91.9019 59.1975 91.7481 59.2307L86.9281 60.1758L85.717 55.7336Z" fill="white"/>
</g>
<mask id="mask7_8_1061" style="mask-type:luminance" maskUnits="userSpaceOnUse" x="0" y="0" width="200" height="200">
<path d="M200 0H0V200H200V0Z" fill="white"/>
</mask>
<g mask="url(#mask7_8_1061)">
<path fill-rule="evenodd" clip-rule="evenodd" d="M98.5354 55.0887L99.9899 57.9677L97.3148 58.0034L98.5354 55.0887ZM100.381 58.9368C100.441 59.0941 100.894 59.9747 100.894 60.0262C100.897 60.0989 100.825 60.1595 100.622 60.1758L100.626 60.3193L103.458 60.2798L103.455 60.1324C103.284 60.1324 103.195 60.0625 103.045 59.7715C102.115 57.937 100.274 54.3196 100.271 54.2223C100.268 54.1006 100.371 54.0741 100.527 54.0582L100.524 53.9143L96.7708 53.9708L96.7765 54.1154C96.9028 54.1239 97.064 54.1475 97.0668 54.2311C97.0668 54.3073 94.7477 59.7006 94.6245 59.9839C94.5392 60.1786 94.4573 60.229 94.2566 60.2692L94.258 60.4132L96.8029 60.3765V60.2329C96.6005 60.2357 96.5405 60.1842 96.5405 60.1126C96.5362 60.0361 96.6213 59.8819 96.9776 58.9869L100.381 58.9368Z" fill="white"/>
</g>
<mask id="mask8_8_1061" style="mask-type:luminance" maskUnits="userSpaceOnUse" x="0" y="0" width="200" height="200">
<path d="M200 0H0V200H200V0Z" fill="white"/>
</mask>
<g mask="url(#mask8_8_1061)">
<path fill-rule="evenodd" clip-rule="evenodd" d="M106.358 60.2693C106.331 60.3765 106.27 60.4531 105.91 60.4128L105.874 60.5554L108.548 61.0408L108.585 60.8958C108.234 60.8087 108.215 60.7159 108.243 60.61L109.183 56.8681C112.01 61.0531 112.323 61.2683 112.286 61.426C112.266 61.5096 112.183 61.5424 111.928 61.4976L111.892 61.6402L114.564 62.1252L114.599 61.9802C114.256 61.8903 114.236 61.8021 114.259 61.6934L115.653 56.1404C115.681 56.0349 115.743 55.959 116.103 55.9968L116.141 55.8557L113.567 55.3907L113.527 55.5332C113.708 55.5801 113.807 55.6567 113.769 55.8017L112.972 58.9823C112.218 57.8884 110.333 55.2563 110.367 55.1244C110.386 55.0534 110.475 54.9963 110.798 55.0425L110.834 54.8993L107.445 54.2883L107.411 54.4315C107.756 54.5158 107.776 54.6107 107.75 54.7204L106.358 60.2693Z" fill="white"/>
</g>
<mask id="mask9_8_1061" style="mask-type:luminance" maskUnits="userSpaceOnUse" x="0" y="0" width="200" height="200">
<path d="M200 0H0V200H200V0Z" fill="white"/>
</mask>
<g mask="url(#mask9_8_1061)">
<path fill-rule="evenodd" clip-rule="evenodd" d="M117.928 62.7391C117.872 62.8364 117.794 62.9013 117.456 62.7923L117.382 62.9239L121.562 64.5781C123.988 65.5377 125.992 64.6324 126.823 63.1211C127.729 61.4747 127.301 59.7747 124.903 58.8299L120.577 57.1176L120.503 57.2513C120.819 57.4022 120.816 57.4926 120.761 57.592L117.928 62.7391ZM122.179 59.3372L123.836 59.9895C125.215 60.537 125.41 61.4218 124.895 62.3581C124.378 63.2961 123.458 63.7381 122.074 63.1913L120.417 62.5359L122.179 59.3372Z" fill="white"/>
</g>
<mask id="mask10_8_1061" style="mask-type:luminance" maskUnits="userSpaceOnUse" x="0" y="0" width="200" height="200">
<path d="M200 0H0V200H200V0Z" fill="white"/>
</mask>
<g mask="url(#mask10_8_1061)">
<path fill-rule="evenodd" clip-rule="evenodd" d="M134.065 65.2815C135.049 65.9349 135.452 67.0218 134.622 67.9277C133.79 68.8273 132.448 68.7606 131.464 68.1052C130.476 67.4529 130.075 66.3653 130.905 65.4657C131.737 64.5601 133.078 64.6317 134.065 65.2815ZM135.143 64.111C133.218 62.8343 130.779 62.6717 129.227 64.3516C127.679 66.0322 128.458 68.0004 130.381 69.2746C132.309 70.5506 134.752 70.714 136.301 69.034C137.848 67.3537 137.071 65.3856 135.143 64.111Z" fill="white"/>
</g>
<mask id="mask11_8_1061" style="mask-type:luminance" maskUnits="userSpaceOnUse" x="0" y="0" width="200" height="200">
<path d="M200 0H0V200H200V0Z" fill="white"/>
</mask>
<g mask="url(#mask11_8_1061)">
<path fill-rule="evenodd" clip-rule="evenodd" d="M70.4442 132.85L72.5287 134.155C73.9861 135.063 75.2977 134.644 75.9419 133.615C76.5836 132.586 76.3987 131.211 74.9403 130.3L70.7899 127.706L70.7052 127.848C70.979 128.05 70.9659 128.156 70.8986 128.256L67.5267 133.65C67.4621 133.756 67.3771 133.819 67.0737 133.659L66.9873 133.797L69.3738 135.289L69.456 135.15C69.1833 134.946 69.201 134.843 69.2684 134.738L70.4442 132.85ZM72.0405 130.293L73.804 131.393C74.4288 131.783 74.6221 132.164 74.3434 132.616C74.0386 133.102 73.5959 133.114 72.9715 132.721L71.2122 131.627L72.0405 130.293Z" fill="white"/>
</g>
<mask id="mask12_8_1061" style="mask-type:luminance" maskUnits="userSpaceOnUse" x="0" y="0" width="200" height="200">
<path d="M200 0H0V200H200V0Z" fill="white"/>
</mask>
<g mask="url(#mask12_8_1061)">
<path fill-rule="evenodd" clip-rule="evenodd" d="M79.3193 140.324L79.3824 140.171C79.0758 140.019 79.073 139.913 79.1199 139.799L81.5023 133.899C81.5474 133.785 81.6236 133.715 81.9506 133.819L82.011 133.662L79.4043 132.61L79.3426 132.762C79.6477 132.918 79.6505 133.02 79.6036 133.134L77.2213 139.031C77.1761 139.147 77.0996 139.22 76.7712 139.119L76.7112 139.269L79.3193 140.324Z" fill="white"/>
</g>
<mask id="mask13_8_1061" style="mask-type:luminance" maskUnits="userSpaceOnUse" x="0" y="0" width="200" height="200">
<path d="M200 0H0V200H200V0Z" fill="white"/>
</mask>
<g mask="url(#mask13_8_1061)">
<path fill-rule="evenodd" clip-rule="evenodd" d="M86.0848 139.717L87.3879 140.019C87.4966 140.338 88.4819 142.498 88.4523 142.618C88.4202 142.779 88.2967 142.82 88.1062 142.792L88.0713 142.951L90.8402 143.591L90.8773 143.428C90.7245 143.393 90.6218 143.305 90.5446 143.101L89.4831 140.528C90.6617 140.478 91.61 140.012 91.8915 138.787C92.2404 137.274 91.5616 136.384 89.5928 135.934L84.7244 134.808L84.6846 134.966C85.013 135.072 85.031 135.169 85.0042 135.295L83.5705 141.49C83.5444 141.611 83.4841 141.695 83.1426 141.646L83.1077 141.807L85.8488 142.437L85.8869 142.277C85.5584 142.173 85.538 142.074 85.5701 141.953L86.0848 139.717ZM86.7459 136.844L88.9832 137.363C89.7671 137.543 89.9272 137.94 89.8362 138.33C89.7498 138.714 89.4302 139.005 88.6459 138.82L86.4104 138.307L86.7459 136.844Z" fill="white"/>
</g>
<mask id="mask14_8_1061" style="mask-type:luminance" maskUnits="userSpaceOnUse" x="0" y="0" width="200" height="200">
<path d="M200 0H0V200H200V0Z" fill="white"/>
</mask>
<g mask="url(#mask14_8_1061)">
<path fill-rule="evenodd" clip-rule="evenodd" d="M98.758 138.251L100.025 141.523L97.4859 141.479L98.758 138.251ZM100.362 142.624C100.414 142.802 100.805 143.804 100.805 143.857C100.805 143.942 100.731 144.006 100.544 144.015L100.538 144.18L103.229 144.227L103.232 144.062C103.068 144.061 102.989 143.979 102.858 143.649C102.046 141.558 100.441 137.446 100.441 137.34C100.441 137.201 100.537 137.175 100.687 137.164L100.692 137.002L97.1274 136.94V137.101C97.2495 137.116 97.4001 137.152 97.3945 137.242C97.3945 137.325 94.9843 143.29 94.8556 143.601C94.7659 143.818 94.6883 143.874 94.4947 143.912L94.489 144.073L96.9048 144.118L96.9137 143.954C96.72 143.954 96.6671 143.895 96.6671 143.813C96.6671 143.734 96.7553 143.555 97.1274 142.565L100.362 142.624Z" fill="white"/>
</g>
<mask id="mask15_8_1061" style="mask-type:luminance" maskUnits="userSpaceOnUse" x="0" y="0" width="200" height="200">
<path d="M200 0H0V200H200V0Z" fill="white"/>
</mask>
<g mask="url(#mask15_8_1061)">
<path fill-rule="evenodd" clip-rule="evenodd" d="M110.202 143.164L110.176 142.999C109.832 143.027 109.78 142.941 109.759 142.82L108.961 137.773L111.284 137.406C111.427 137.38 111.496 137.442 111.584 137.747L111.745 137.72L111.366 135.32L111.203 135.348C111.209 135.665 111.169 135.738 111.018 135.763L104.359 136.817C104.209 136.839 104.143 136.782 104.053 136.481L103.894 136.503L104.275 138.905L104.435 138.879C104.427 138.562 104.47 138.485 104.618 138.465L106.937 138.095L107.736 143.139C107.757 143.259 107.733 143.361 107.399 143.443L107.424 143.601L110.202 143.164Z" fill="white"/>
</g>
<mask id="mask16_8_1061" style="mask-type:luminance" maskUnits="userSpaceOnUse" x="0" y="0" width="200" height="200">
<path d="M200 0H0V200H200V0Z" fill="white"/>
</mask>
<g mask="url(#mask16_8_1061)">
<path fill-rule="evenodd" clip-rule="evenodd" d="M119.696 135.4L119.543 135.458C119.566 135.637 119.529 135.797 119.273 135.896L116.904 136.805L116.497 135.75L120.59 134.175C120.731 134.125 120.802 134.17 120.956 134.447L121.109 134.386L120.256 132.167L120.103 132.232C120.176 132.535 120.152 132.619 120.012 132.674L113.65 135.114L113.708 135.269C114.037 135.17 114.11 135.246 114.154 135.363L116.432 141.3C116.48 141.416 116.475 141.517 116.164 141.667L116.224 141.82L122.584 139.377C122.722 139.324 122.802 139.371 122.921 139.571L123.073 139.512L122.223 137.292L122.07 137.353C122.155 137.688 122.126 137.769 121.989 137.826L117.898 139.392L117.442 138.207L119.812 137.298C120.068 137.202 120.204 137.292 120.307 137.446L120.461 137.387L119.696 135.4Z" fill="white"/>
</g>
<mask id="mask17_8_1061" style="mask-type:luminance" maskUnits="userSpaceOnUse" x="0" y="0" width="200" height="200">
<path d="M200 0H0V200H200V0Z" fill="white"/>
</mask>
<g mask="url(#mask17_8_1061)">
<path fill-rule="evenodd" clip-rule="evenodd" d="M125.851 137.363L126.012 137.31C126.034 137.199 126.053 137.071 126.149 137.014C126.413 136.85 127.602 136.844 129.538 135.636C132.054 134.068 132.116 132.496 131.494 131.5C129.828 128.836 125.825 133.094 125.181 132.065C125.014 131.801 125.187 131.302 126.191 130.672C127.283 129.995 128.806 129.493 128.984 129.784L129.066 129.913L129.25 129.895L129.044 127.784L128.884 127.816C128.862 127.96 128.832 128.093 128.68 128.183C128.368 128.382 126.919 128.614 125.33 129.602C123.631 130.663 123.015 132.161 123.738 133.313C125.137 135.551 129.318 131.62 129.851 132.479C130.171 132.987 129.822 133.589 128.664 134.315C127.459 135.067 125.896 135.319 125.7 135.01C125.634 134.903 125.582 134.824 125.571 134.75L125.418 134.764L125.851 137.363Z" fill="white"/>
</g>
<mask id="mask18_8_1061" style="mask-type:luminance" maskUnits="userSpaceOnUse" x="0" y="0" width="200" height="200">
<path d="M200 0H0V200H200V0Z" fill="white"/>
</mask>
<g mask="url(#mask18_8_1061)">
<path fill-rule="evenodd" clip-rule="evenodd" d="M97.2483 109.946C95.3443 110.796 92.1732 112.171 90.9801 112.663C82.7043 116.082 79.1257 117.596 79.01 117.696C78.2254 118.334 78.7521 119.013 77.7509 120.694C76.5575 122.709 75.5313 122.935 75.5313 122.935C76.9092 123.239 79.4189 119.795 79.8941 119.009C80.2606 118.405 81.8086 117.844 81.8086 117.844C81.8086 117.844 88.9583 114.728 98.3186 110.443L97.2483 109.946ZM102.077 107.763L103.151 108.248C108.809 105.69 116.664 102.133 117.431 101.673C119.491 100.434 121.917 100.743 121.917 100.743C122.751 100.213 117.169 100.479 116.167 101.047C115.356 101.503 108.449 104.821 102.077 107.763ZM80.3601 119.633C80.3601 119.633 76.6894 125.306 74.269 124.022C74.269 124.022 73.1387 123.66 73.4128 121.773C73.4128 121.773 73.7353 121.53 73.4114 120.814C73.4114 120.814 73.9759 121.222 73.9759 122.255C73.973 123.26 75.2131 122.656 75.1619 122.082C75.1002 121.348 73.8132 120.303 72.1284 119.252C72.1284 119.252 71.312 118.098 72.7094 116.774C72.7094 116.774 74.9227 116.496 77.7245 116.021C79.3222 115.752 79.8179 115.23 82.9728 113.889C84.7874 113.117 90.247 110.725 94.6769 108.754C87.7398 105.541 80.7517 102.339 79.6581 101.967C77.2712 101.149 73.9261 102.452 72.2388 99.834C70.9822 97.8891 73.5063 98.0115 74.4098 97.4326C74.9668 97.0728 74.9714 96.6731 74.8098 95.8977C74.6398 95.0673 74.3001 93.9507 75.7013 93.387C76.7392 92.97 76.6513 92.3893 78.8326 95.1974C79.6418 96.2364 81.4773 97.3621 84.0484 99.1821C85.2683 100.045 92.2127 103.294 99.4447 106.576C106.159 103.514 113.738 99.985 114.87 99.1821C117.438 97.3621 119.274 96.2364 120.086 95.1974C122.261 92.3893 122.179 92.97 123.214 93.387C124.617 93.9507 124.277 95.0673 124.106 95.8977C123.944 96.6731 123.95 97.0728 124.507 97.4326C125.412 98.0115 127.935 97.8891 126.677 99.834C124.99 102.452 121.644 101.149 119.259 101.967C118.265 102.304 110.671 105.778 104.256 108.741C109.223 110.966 113.741 112.951 115.943 113.889C119.098 115.23 119.596 115.752 121.191 116.021C123.997 116.496 126.208 116.774 126.208 116.774C127.604 118.098 126.786 119.252 126.786 119.252C125.103 120.303 123.816 121.348 123.756 122.082C123.708 122.656 124.941 123.26 124.941 122.255C124.941 121.222 125.506 120.814 125.506 120.814C125.182 121.529 125.503 121.773 125.503 121.773C125.777 123.66 124.648 124.022 124.648 124.022C122.224 125.306 118.553 119.633 118.553 119.633C116.056 117.548 113.36 117.454 105.365 113.719C103.715 112.953 101.684 112.009 99.5004 110.989L93.5547 113.719C85.5544 117.454 82.8613 117.548 80.3601 119.633ZM76.9971 100.743C76.9971 100.743 79.4249 100.435 81.4847 101.674C82.6807 102.386 96.8849 108.702 101.4 110.796C113.901 116.59 117.11 117.844 117.11 117.844C117.11 117.844 118.658 118.404 119.025 119.008C119.499 119.794 122.009 123.239 123.384 122.934C123.384 122.934 122.358 122.708 121.162 120.694C120.163 119.012 120.69 118.334 119.906 117.696C119.788 117.596 116.212 116.082 107.938 112.663C98.1983 108.638 84.0921 101.81 82.748 101.047C81.75 100.479 76.1673 100.214 76.9971 100.743ZM75.2497 96.2159C75.3669 96.8636 75.6248 97.5526 74.8218 97.8179C74.1956 98.0182 72.9715 98.6712 73.3204 98.9492C73.3204 98.9492 73.6721 98.5605 74.9009 98.4306C76.0678 98.3065 76.5515 97.9184 76.1998 97.2827C75.8406 96.6438 75.2205 95.8293 75.3609 94.8888C75.3849 94.7512 75.0677 95.2087 75.2497 96.2159ZM97.1047 100.874C94.6949 99.9994 92.465 98.8568 91.5548 98.5079C90.4231 98.0701 90.5751 97.4369 90.3522 96.9331C90.059 96.2861 90.4464 93.5711 90.4756 92.5407C90.5109 91.0855 89.4642 90.3658 89.8276 90.4219C90.1941 90.4737 90.9978 90.6875 91.1558 92.5407C91.2115 93.2494 91.1939 94.4654 91.1939 94.4654C91.1939 94.4654 91.2496 94.9522 92.1379 95.3301C94.7009 96.418 97.7295 96.998 99.3522 96.998C100.938 96.998 104.136 96.418 106.698 95.3301C107.587 94.9522 107.639 94.4654 107.639 94.4654C107.639 94.4654 107.882 93.2494 107.94 92.5407C108.095 90.6875 108.903 90.4737 109.267 90.4219C109.632 90.3658 108.585 91.0855 108.62 92.5407C108.648 93.5711 108.771 96.2861 108.484 96.9331C108.26 97.4369 108.411 98.0701 107.279 98.5079C106.373 98.8568 104.143 99.9497 101.735 100.82C101.233 100.999 100.249 100.463 99.493 100.409C99.1293 100.382 97.6032 101.052 97.1047 100.874ZM92.0441 90.7814C91.9637 90.1252 91.6747 90.5161 91.4871 90.5785C91.2055 90.5439 91.0457 91.0188 91.4285 91.6044C91.5386 91.7744 91.4285 92.0411 91.8712 92.1932C92.3224 92.3498 92.1012 91.2812 92.0441 90.7814ZM106.906 90.9881C106.967 90.635 107.179 90.5161 107.375 90.5785C107.874 90.3414 107.991 90.9595 107.609 91.548C107.496 91.7194 107.427 92.0411 106.991 92.1932C106.537 92.3498 106.818 91.4844 106.906 90.9881ZM96.9523 91.6139C96.9523 91.6139 97.093 92.002 99.433 92.002C101.617 92.002 101.881 91.6139 101.881 91.6139C101.863 89.3713 100.591 88.2407 100.591 88.2407C100.069 86.2485 99.4475 86.3194 99.4475 86.3194C99.4475 86.3194 98.7116 86.2852 98.2452 88.2407C98.2452 88.2407 96.9844 89.4221 96.9523 91.6139ZM97.7616 81.4021C97.5121 81.6342 97.2426 81.8014 96.9406 81.7492C96.7381 81.7136 96.5685 81.5809 96.4626 81.3036C96.0608 80.2626 96.6443 80.3536 96.1314 80.1352C95.9469 80.0597 96.0548 80.4365 95.3341 79.9849C94.9291 79.7327 93.8062 80.9399 93.6538 80.9399C92.2893 80.9399 90.4023 82.3108 90.3243 84.1082C90.2294 86.3085 90.2178 86.8292 93.2344 87.4402C93.2344 87.4402 92.4078 88.0297 91.5781 89.8744C91.5781 89.8744 90.247 90.1245 89.6254 89.2634C89.6254 89.2634 89.0931 88.6432 88.3177 88.1352C87.1359 87.3598 87.054 86.5516 87.0071 86.499C86.8766 86.3424 86.8692 84.4606 87.1274 84.1809C88.5096 82.6999 89.599 81.7559 88.898 78.8776C88.4877 77.1842 87.9102 77.1578 87.6651 76.8089C87.6651 76.8089 86.6127 78.3752 87.4661 79.9116C88.2708 81.3689 87.6111 82.8333 87.048 83.154C86.4878 83.4732 86.8046 83.1067 86.8046 83.1067C86.8046 83.1067 87.4146 82.2886 86.2666 79.1136C85.1187 75.9354 86.0599 68.5486 93.6083 66.5173C95.6241 65.9737 97.5181 65.7433 99.2482 65.7133H99.5851C101.318 65.7433 103.201 66.0266 105.228 66.5173C112.393 68.2547 113.713 75.9354 112.567 79.1136C111.419 82.2886 112.029 83.1067 112.029 83.1067C112.029 83.1067 112.346 83.4732 111.786 83.154C111.226 82.8333 110.028 81.3057 110.818 80.0103C112.293 77.585 110.88 76.521 110.88 76.521C110.639 76.871 110.118 77.1606 109.704 78.8561C109.092 81.3668 110.302 83.5219 111.56 84.8967C111.746 85.0999 111.631 85.8732 111.739 86.499C111.773 86.6934 110.728 87.3598 110.728 87.3598C110.012 90.1566 107.258 89.8744 107.258 89.8744C106.429 88.0297 105.603 87.4402 105.603 87.4402C108.62 86.8292 108.602 86.3085 108.51 84.1082C108.435 82.3108 106.548 80.9399 105.182 80.9399C104.998 80.9399 103.626 79.3069 102.818 79.9652C102.386 80.318 102.869 80.2626 102.465 81.3036C102.184 82.0381 101.612 81.7615 101.093 81.3255C100.872 81.5164 100.562 81.7756 100.307 81.9993C100.723 82.4251 101.064 83.0823 101.295 83.7417C101.568 84.521 103.245 87.6529 104.742 87.5503C104.742 87.5503 105.908 88.7525 106.121 90.4603C106.335 92.1671 105.752 92.8469 105.752 92.8469C105.752 92.8469 101.584 94.2382 99.4189 94.1073C97.2507 94.2382 93.083 92.8469 93.083 92.8469C93.083 92.8469 92.5023 92.1671 92.7165 90.4603C92.9334 88.7525 94.0944 87.5503 94.0944 87.5503C95.5895 87.6529 97.2666 84.521 97.5439 83.7417C97.7767 83.076 98.0847 82.3972 98.4749 81.9767C98.2188 81.5809 98.0413 81.3897 97.7616 81.4021ZM123.667 96.2159C123.849 95.2087 123.535 94.7512 123.555 94.8888C123.695 95.8293 123.074 96.6438 122.717 97.2827C122.37 97.9184 122.848 98.3065 124.015 98.4306C125.24 98.5605 125.598 98.9492 125.598 98.9492C125.944 98.6712 124.722 98.0182 124.097 97.8179C123.292 97.5526 123.551 96.8636 123.667 96.2159Z" fill="white"/>
</g>
<mask id="mask19_8_1061" style="mask-type:luminance" maskUnits="userSpaceOnUse" x="54" y="64" width="43" height="91">
<path d="M60.7903 81.5496C60.7903 93.447 54.677 103.48 54.677 114.258C54.677 128.499 64.3837 144.93 96.0787 154.966C85.1507 149.858 56.467 139.828 56.467 113.967C56.467 104.737 63.0378 93.5415 63.0378 84.0194C63.0378 71.0445 56.0595 64.7785 56.0595 64.7785C56.0595 64.7785 60.7903 70.4939 60.7903 81.5496Z" fill="white"/>
</mask>
<g mask="url(#mask19_8_1061)">
<path d="M96.0787 64.7785H54.677V154.966H96.0787V64.7785Z" fill="url(#paint2_linear_8_1061)"/>
</g>
<mask id="mask20_8_1061" style="mask-type:luminance" maskUnits="userSpaceOnUse" x="103" y="64" width="43" height="91">
<path d="M136.964 84.0194C136.964 93.5415 143.536 104.737 143.536 113.967C143.536 139.828 114.85 149.857 103.921 154.966C135.622 144.931 145.326 128.499 145.326 114.258C145.326 103.479 139.214 93.447 139.214 81.5496C139.214 70.4939 143.94 64.7785 143.94 64.7785C143.94 64.7785 136.964 71.0445 136.964 84.0194Z" fill="white"/>
</mask>
<g mask="url(#mask20_8_1061)">
<path d="M132.296 45.551L187.208 126.586L116.951 174.194L62.0388 93.1595L132.296 45.551Z" fill="url(#paint3_linear_8_1061)"/>
</g>
<mask id="mask21_8_1061" style="mask-type:luminance" maskUnits="userSpaceOnUse" x="0" y="0" width="200" height="200">
<path d="M200 0H0V200H200V0Z" fill="white"/>
</mask>
<g mask="url(#mask21_8_1061)">
<path fill-rule="evenodd" clip-rule="evenodd" d="M95.1668 46.8298C95.2165 46.9304 76.8474 46.482 47.0835 60.4792C47.0835 60.4792 54.3737 62.7179 54.3737 80.5903C54.3737 92.3354 47.1202 102.8 47.1202 116.467C47.1202 135.055 68.0664 149.741 96.0787 154.966C95.9877 154.966 52.2291 144.684 52.2291 113.967C52.2291 100.006 58.0447 93.2713 58.0447 83.668C58.0447 72.481 53.5736 63.5808 53.5736 63.5808C53.5736 63.5808 66.5314 52.9939 95.1668 46.8298Z" fill="white"/>
</g>
<mask id="mask22_8_1061" style="mask-type:luminance" maskUnits="userSpaceOnUse" x="0" y="0" width="200" height="200">
<path d="M200 0H0V200H200V0Z" fill="white"/>
</mask>
<g mask="url(#mask22_8_1061)">
<path fill-rule="evenodd" clip-rule="evenodd" d="M104.837 46.8298C104.786 46.9304 123.156 46.482 152.918 60.4792C152.918 60.4792 145.631 62.7179 145.631 80.5903C145.631 92.3354 152.886 102.8 152.886 116.467C152.886 135.055 131.937 149.741 103.921 154.966C104.018 154.966 147.772 144.684 147.772 113.967C147.772 100.006 141.959 93.2713 141.959 83.668C141.959 72.481 146.43 63.5808 146.43 63.5808C146.43 63.5808 133.469 52.9939 104.837 46.8298Z" fill="white"/>
</g>
<mask id="mask23_8_1061" style="mask-type:luminance" maskUnits="userSpaceOnUse" x="0" y="0" width="200" height="200">
<path d="M200 0H0V200H200V0Z" fill="white"/>
</mask>
<g mask="url(#mask23_8_1061)">
<path d="M19.9901 99.7282C19.9901 64.6674 42.6691 34.8269 74.1178 24.0404L73.5664 22.3749C41.4185 33.3904 18.2354 63.8927 18.2354 99.7282C18.2354 133.827 39.221 163.1 68.9514 175.351L69.6301 173.73C40.5344 161.748 19.9901 133.1 19.9901 99.7282Z" fill="#ED1C24"/>
</g>
<mask id="mask24_8_1061" style="mask-type:luminance" maskUnits="userSpaceOnUse" x="0" y="0" width="200" height="200">
<path d="M200 0H0V200H200V0Z" fill="white"/>
</mask>
<g mask="url(#mask24_8_1061)">
<path d="M126.342 22.3439L125.787 24.0093C157.287 34.7662 180.01 64.6335 180.01 99.7278C180.01 133.123 159.436 161.789 130.304 173.757L130.988 175.376C160.748 163.139 181.763 133.847 181.763 99.7278C181.763 63.8591 158.536 33.3329 126.342 22.3439Z" fill="#ED1C24"/>
</g>
<mask id="mask25_8_1061" style="mask-type:luminance" maskUnits="userSpaceOnUse" x="0" y="0" width="200" height="200">
<path d="M200 0H0V200H200V0Z" fill="white"/>
</mask>
<g mask="url(#mask25_8_1061)">
<path d="M80.9258 173.144L78.3103 173.063L78.1992 171.359L82.1532 171.365L83.8225 171.793L81.0052 182.879L78.6084 182.266L80.9258 173.144Z" fill="white"/>
</g>
<mask id="mask26_8_1061" style="mask-type:luminance" maskUnits="userSpaceOnUse" x="0" y="0" width="200" height="200">
<path d="M200 0H0V200H200V0Z" fill="white"/>
</mask>
<g mask="url(#mask26_8_1061)">
<path d="M80.9258 173.144L78.3103 173.063L78.1992 171.359L82.1532 171.365L83.8225 171.793L81.0052 182.879L78.6084 182.266L80.9258 173.144Z" stroke="white" stroke-width="2.128" stroke-miterlimit="10"/>
</g>
<mask id="mask27_8_1061" style="mask-type:luminance" maskUnits="userSpaceOnUse" x="0" y="0" width="200" height="200">
<path d="M200 0H0V200H200V0Z" fill="white"/>
</mask>
<g mask="url(#mask27_8_1061)">
<path d="M94.9145 179.671C94.0527 180.351 92.9178 180.695 91.4665 180.549C88.4612 180.252 86.6052 178.648 86.8253 176.469L86.8282 176.437C87.0508 174.225 89.3583 172.743 92.4842 173.054C94.2577 173.229 95.3689 173.748 96.2953 174.64C97.2397 175.581 97.7819 176.89 97.5561 179.117L97.5533 179.149C97.1896 182.782 94.6976 185.078 90.8858 184.697C88.9304 184.503 87.6156 183.802 86.5054 182.893L88.0096 181.51C89.0066 182.327 89.9185 182.776 91.1296 182.897C93.629 183.146 94.7445 181.169 94.9145 179.671ZM95.0641 177.175L95.0669 177.142C95.1858 175.963 94.1275 174.945 92.3315 174.766C90.5782 174.593 89.4345 175.424 89.3188 176.587L89.3145 176.619C89.1971 177.798 90.2409 178.748 91.996 178.924C93.7916 179.103 94.954 178.272 95.0641 177.175Z" fill="white"/>
</g>
<mask id="mask28_8_1061" style="mask-type:luminance" maskUnits="userSpaceOnUse" x="0" y="0" width="200" height="200">
<path d="M200 0H0V200H200V0Z" fill="white"/>
</mask>
<g mask="url(#mask28_8_1061)">
<path d="M94.9145 179.671C94.0527 180.351 92.9178 180.695 91.4665 180.549C88.4612 180.252 86.6052 178.648 86.8253 176.469L86.8282 176.437C87.0508 174.225 89.3583 172.743 92.4842 173.054C94.2577 173.229 95.3689 173.748 96.2953 174.64C97.2397 175.581 97.7819 176.89 97.5561 179.117L97.5533 179.149C97.1896 182.782 94.6976 185.078 90.8858 184.697C88.9304 184.503 87.6156 183.802 86.5054 182.893L88.0096 181.51C89.0066 182.327 89.9185 182.776 91.1296 182.897C93.629 183.146 94.7445 181.169 94.9145 179.671ZM95.0641 177.175L95.0669 177.142C95.1858 175.963 94.1275 174.945 92.3315 174.766C90.5782 174.593 89.4345 175.424 89.3188 176.587L89.3145 176.619C89.1971 177.798 90.2409 178.748 91.996 178.924C93.7916 179.103 94.954 178.272 95.0641 177.175Z" stroke="white" stroke-width="2.128" stroke-miterlimit="10"/>
</g>
<mask id="mask29_8_1061" style="mask-type:luminance" maskUnits="userSpaceOnUse" x="0" y="0" width="200" height="200">
<path d="M200 0H0V200H200V0Z" fill="white"/>
</mask>
<g mask="url(#mask29_8_1061)">
<path d="M100.919 183.357L102.561 181.932C103.643 182.811 104.816 183.26 106.393 183.141C107.787 183.036 108.788 182.278 108.709 181.243L108.706 181.21C108.622 180.093 107.302 179.558 105.319 179.706L104.167 179.794L103.669 178.578L107.246 175.039L101.121 175.501L100.99 173.769L110.351 173.066L110.462 174.552L106.765 178.085C108.923 178.135 111.01 178.857 111.167 180.943L111.169 180.977C111.327 183.064 109.439 184.718 106.486 184.941C104.021 185.125 102.2 184.433 100.919 183.357Z" fill="white"/>
</g>
<mask id="mask30_8_1061" style="mask-type:luminance" maskUnits="userSpaceOnUse" x="0" y="0" width="200" height="200">
<path d="M200 0H0V200H200V0Z" fill="white"/>
</mask>
<g mask="url(#mask30_8_1061)">
<path d="M100.919 183.357L102.561 181.932C103.643 182.811 104.816 183.26 106.393 183.141C107.787 183.036 108.788 182.278 108.709 181.243L108.706 181.21C108.622 180.093 107.302 179.558 105.319 179.706L104.167 179.794L103.669 178.578L107.246 175.039L101.121 175.501L100.99 173.769L110.351 173.066L110.462 174.552L106.765 178.085C108.923 178.135 111.01 178.857 111.167 180.943L111.169 180.977C111.327 183.064 109.439 184.718 106.486 184.941C104.021 185.125 102.2 184.433 100.919 183.357Z" stroke="white" stroke-width="2.128" stroke-miterlimit="10"/>
</g>
<mask id="mask31_8_1061" style="mask-type:luminance" maskUnits="userSpaceOnUse" x="0" y="0" width="200" height="200">
<path d="M200 0H0V200H200V0Z" fill="white"/>
</mask>
<g mask="url(#mask31_8_1061)">
<path d="M120.354 172.637L113.423 174.346L113.003 172.646L122.69 170.257L123.053 171.721L119.207 182.814L116.47 183.489L120.354 172.637Z" fill="white"/>
</g>
<mask id="mask32_8_1061" style="mask-type:luminance" maskUnits="userSpaceOnUse" x="0" y="0" width="200" height="200">
<path d="M200 0H0V200H200V0Z" fill="white"/>
</mask>
<g mask="url(#mask32_8_1061)">
<path d="M120.354 172.637L113.423 174.346L113.003 172.646L122.69 170.257L123.053 171.721L119.207 182.814L116.47 183.489L120.354 172.637Z" stroke="white" stroke-width="2.128" stroke-miterlimit="10"/>
</g>
</g>
<defs>
<linearGradient id="paint0_linear_8_1061" x1="94.9406" y1="15.7599" x2="112.242" y2="34.1429" gradientUnits="userSpaceOnUse">
<stop stop-color="#968F40"/>
<stop offset="0.0041" stop-color="#989142"/>
<stop offset="0.1591" stop-color="#CFC99B"/>
<stop offset="0.2674" stop-color="#F0EDDC"/>
<stop offset="0.319" stop-color="white"/>
<stop offset="0.3337" stop-color="#FDFCF8"/>
<stop offset="0.3467" stop-color="#F9F7EB"/>
<stop offset="0.3592" stop-color="#F3F0D8"/>
<stop offset="0.3714" stop-color="#EDE7C0"/>
<stop offset="0.3831" stop-color="#E3DCA2"/>
<stop offset="0.3865" stop-color="#E0D898"/>
<stop offset="0.39" stop-color="#DDD594"/>
<stop offset="0.4202" stop-color="#C7BF78"/>
<stop offset="0.4544" stop-color="#B5AD63"/>
<stop offset="0.4949" stop-color="#A79F53"/>
<stop offset="0.5449" stop-color="#9D9648"/>
<stop offset="0.615" stop-color="#989142"/>
<stop offset="0.8098" stop-color="#968F40"/>
<stop offset="1" stop-color="white"/>
</linearGradient>
<linearGradient id="paint1_linear_8_1061" x1="24.1654" y1="33.3746" x2="174.066" y2="169.362" gradientUnits="userSpaceOnUse">
<stop stop-color="white"/>
<stop offset="0.0614" stop-color="#6D6E71"/>
<stop offset="0.1029" stop-color="#707173"/>
<stop offset="0.1363" stop-color="#77797B"/>
<stop offset="0.1669" stop-color="#848688"/>
<stop offset="0.1958" stop-color="#96989A"/>
<stop offset="0.2235" stop-color="#AEB0B2"/>
<stop offset="0.2502" stop-color="#CDCFD0"/>
<stop offset="0.2759" stop-color="#F2F2F3"/>
<stop offset="0.2822" stop-color="white"/>
<stop offset="0.5" stop-color="#6D6E71"/>
<stop offset="0.5184" stop-color="#6F7072"/>
<stop offset="0.5251" stop-color="#747578"/>
<stop offset="0.5298" stop-color="#7D7E81"/>
<stop offset="0.5336" stop-color="#898B8E"/>
<stop offset="0.5369" stop-color="#9A9C9E"/>
<stop offset="0.5398" stop-color="#AFB1B4"/>
<stop offset="0.5424" stop-color="#CACCCE"/>
<stop offset="0.5447" stop-color="#E8E9EA"/>
<stop offset="0.546" stop-color="white"/>
<stop offset="0.6176" stop-color="#FAFAFA"/>
<stop offset="0.6799" stop-color="#F0F0F1"/>
<stop offset="0.7386" stop-color="#E1E2E3"/>
<stop offset="0.7951" stop-color="#CCCED0"/>
<stop offset="0.8496" stop-color="#B1B4B6"/>
<stop offset="0.9018" stop-color="#939598"/>
<stop offset="1" stop-color="#D1D3D4"/>
</linearGradient>
<linearGradient id="paint2_linear_8_1061" x1="54.6603" y1="109.908" x2="96.0613" y2="109.908" gradientUnits="userSpaceOnUse">
<stop stop-color="#968F40"/>
<stop offset="0.0041" stop-color="#989142"/>
<stop offset="0.1591" stop-color="#CFC99B"/>
<stop offset="0.2674" stop-color="#F0EDDC"/>
<stop offset="0.319" stop-color="white"/>
<stop offset="0.3337" stop-color="#FDFCF8"/>
<stop offset="0.3467" stop-color="#F9F7EB"/>
<stop offset="0.3592" stop-color="#F3F0D8"/>
<stop offset="0.3714" stop-color="#EDE7C0"/>
<stop offset="0.3831" stop-color="#E3DCA2"/>
<stop offset="0.3865" stop-color="#E0D898"/>
<stop offset="0.39" stop-color="#DDD594"/>
<stop offset="0.4202" stop-color="#C7BF78"/>
<stop offset="0.4544" stop-color="#B5AD63"/>
<stop offset="0.4949" stop-color="#A79F53"/>
<stop offset="0.5449" stop-color="#9D9648"/>
<stop offset="0.615" stop-color="#989142"/>
<stop offset="0.8098" stop-color="#968F40"/>
<stop offset="1" stop-color="white"/>
</linearGradient>
<linearGradient id="paint3_linear_8_1061" x1="113.588" y1="93.6464" x2="141.432" y2="134.737" gradientUnits="userSpaceOnUse">
<stop stop-color="#968F40"/>
<stop offset="0.0041" stop-color="#989142"/>
<stop offset="0.1591" stop-color="#CFC99B"/>
<stop offset="0.2674" stop-color="#F0EDDC"/>
<stop offset="0.319" stop-color="white"/>
<stop offset="0.3337" stop-color="#FDFCF8"/>
<stop offset="0.3467" stop-color="#F9F7EB"/>
<stop offset="0.3592" stop-color="#F3F0D8"/>
<stop offset="0.3714" stop-color="#EDE7C0"/>
<stop offset="0.3831" stop-color="#E3DCA2"/>
<stop offset="0.3865" stop-color="#E0D898"/>
<stop offset="0.39" stop-color="#DDD594"/>
<stop offset="0.4202" stop-color="#C7BF78"/>
<stop offset="0.4544" stop-color="#B5AD63"/>
<stop offset="0.4949" stop-color="#A79F53"/>
<stop offset="0.5449" stop-color="#9D9648"/>
<stop offset="0.615" stop-color="#989142"/>
<stop offset="0.8098" stop-color="#968F40"/>
<stop offset="1" stop-color="white"/>
</linearGradient>
<clipPath id="clip0_8_1061">
<rect width="200" height="200" fill="white"/>
</clipPath>
</defs>
</svg>
